<svg width="976" height="361" viewBox="0 0 976 361" fill="none" xmlns="http://www.w3.org/2000/svg">
<path fill-rule="evenodd" clip-rule="evenodd" d="M0.417969 0H28.466V124.355C28.466 135.81 32.208 140.717 42.491 140.717C45.765 140.717 48.564 140.48 50.902 139.782V164.793C47.635 165.729 43.189 166.197 37.583 166.197C12.802 166.197 0.417969 153.575 0.417969 128.096V0Z" fill="white"/>
<path fill-rule="evenodd" clip-rule="evenodd" d="M150.009 91.3984C150.009 84.3824 146.972 78.3094 141.129 73.3954C135.286 68.2574 128.508 65.6884 120.327 65.6884C111.677 65.6884 103.964 68.2574 97.6542 73.1644C91.3432 78.0724 87.8392 84.1524 87.1342 91.3984H150.009ZM58.6172 104.019C58.6172 85.3184 64.4602 70.3584 75.9162 58.9034C87.6012 47.4554 102.33 41.8424 120.327 41.8424C137.387 41.8424 151.412 47.4554 162.169 58.9034C173.15 70.3584 178.532 84.3824 178.532 101.213C178.532 104.717 178.295 107.991 178.064 111.028H86.4352C87.3712 129.729 101.158 141.882 121.96 141.882C134.114 141.882 144.634 137.442 153.75 128.326L170.581 144.689C157.255 158.713 140.899 165.729 121.025 165.729C102.561 165.729 87.3712 160.116 75.9162 149.128C64.4602 138.148 58.6172 123.419 58.6172 104.955V104.019Z" fill="white"/>
<path fill-rule="evenodd" clip-rule="evenodd" d="M277.847 130.435C284.863 123.189 288.367 114.54 288.367 104.02C288.367 93.4996 284.863 84.8506 277.847 77.8416C270.831 70.5956 262.189 67.0846 251.9 67.0846C241.38 67.0846 232.731 70.5956 225.722 77.8416C218.944 84.8506 215.439 93.4996 215.439 104.02C215.439 114.54 218.944 123.189 225.722 130.435C232.731 137.443 241.38 140.948 251.9 140.948C262.189 140.948 270.831 137.443 277.847 130.435ZM187.621 104.02C187.621 86.4906 193.932 71.5316 206.323 59.6086C218.706 47.6846 233.904 41.6116 251.9 41.6116C269.903 41.6116 285.093 47.6846 297.484 59.6086C309.868 71.5316 316.178 86.4906 316.178 104.02C316.178 121.548 309.868 136.508 297.484 148.431C285.093 160.354 269.903 166.427 251.9 166.427C233.904 166.427 218.706 160.354 206.323 148.431C193.932 136.508 187.621 121.548 187.621 104.02Z" fill="white"/>
<path fill-rule="evenodd" clip-rule="evenodd" d="M0 356.53V238.724H27.812V256.252C33.424 243.868 46.282 236.385 62.876 236.385C66.149 236.385 68.956 236.622 71.287 237.084V264.203C67.783 263.498 63.811 263.031 59.602 263.031C40.202 263.031 27.812 275.184 27.812 294.59V356.53H0Z" fill="white"/>
<path fill-rule="evenodd" clip-rule="evenodd" d="M172.502 285.006C172.502 277.991 169.465 271.918 163.622 267.003C157.779 261.865 151.001 259.296 142.82 259.296C134.171 259.296 126.457 261.865 120.147 266.773C113.836 271.68 110.332 277.76 109.627 285.006H172.502ZM81.1094 297.627C81.1094 278.926 86.9524 263.966 98.4084 252.511C110.094 241.063 124.824 235.45 142.82 235.45C159.881 235.45 173.905 241.063 184.662 252.511C195.643 263.966 201.018 277.991 201.018 294.821C201.018 298.325 200.788 301.599 200.557 304.636H108.928C109.864 323.337 123.651 335.49 144.454 335.49C156.606 335.49 167.127 331.051 176.243 321.934L193.074 338.297C179.748 352.321 163.392 359.337 143.518 359.337C125.054 359.337 109.864 353.725 98.4084 342.736C86.9524 331.756 81.1094 317.026 81.1094 298.563V297.627Z" fill="white"/>
<path fill-rule="evenodd" clip-rule="evenodd" d="M306.386 323.337C313.164 316.559 316.438 307.91 316.438 297.627C316.438 287.345 313.164 278.695 306.386 271.918C299.845 265.139 291.663 261.628 281.611 261.628C271.559 261.628 262.91 265.139 255.901 271.918C249.123 278.695 245.612 287.345 245.612 297.627C245.612 307.91 249.123 316.559 255.901 323.337C262.91 330.115 271.559 333.627 281.611 333.627C291.663 333.627 299.845 330.115 306.386 323.337ZM219.672 356.53V193.608H247.72V255.785C251.692 244.33 265.953 236.155 285.353 236.155C301.946 236.155 315.97 241.998 327.188 253.914C338.644 265.607 344.256 280.099 344.256 297.627C344.256 315.156 338.644 329.648 327.188 341.57C315.97 353.257 301.946 359.1 285.353 359.1C265.953 359.1 251.692 350.918 247.72 339.47V356.53H219.672Z" fill="white"/>
<path fill-rule="evenodd" clip-rule="evenodd" d="M448.049 324.042C455.065 316.796 458.569 308.147 458.569 297.627C458.569 287.107 455.065 278.459 448.049 271.45C441.034 264.204 432.391 260.692 422.102 260.692C411.582 260.692 402.94 264.204 395.924 271.45C389.146 278.459 385.642 287.107 385.642 297.627C385.642 308.147 389.146 316.796 395.924 324.042C402.94 331.051 411.582 334.555 422.102 334.555C432.391 334.555 441.034 331.051 448.049 324.042ZM357.824 297.627C357.824 280.099 364.134 265.139 376.525 253.216C388.909 241.293 404.106 235.22 422.102 235.22C440.105 235.22 455.295 241.293 467.686 253.216C480.07 265.139 486.381 280.099 486.381 297.627C486.381 315.156 480.07 330.115 467.686 342.038C455.295 353.961 440.105 360.034 422.102 360.034C404.106 360.034 388.909 353.961 376.525 342.038C364.134 330.115 357.824 315.156 357.824 297.627Z" fill="white"/>
<path fill-rule="evenodd" clip-rule="evenodd" d="M504.5 238.724H532.779V307.442C532.779 325.208 542.831 333.857 558.496 333.857C574.153 333.857 584.206 324.977 584.206 307.211V238.724H612.491V309.082C612.491 325.445 607.347 338.066 597.064 346.716C586.774 355.364 573.923 359.567 558.258 359.567C542.601 359.567 529.742 355.364 519.69 346.716C509.638 338.066 504.5 325.913 504.5 309.78V238.724Z" fill="white"/>
<path fill-rule="evenodd" clip-rule="evenodd" d="M800.522 335.958C819.223 335.958 830.678 327.547 830.678 312.587V299.498C829.505 300.901 827.404 302.067 824.835 303.002C819.459 304.873 815.949 305.341 804.731 306.507C788.368 308.378 780.187 313.522 780.187 321.703C780.187 330.82 787.669 335.958 800.522 335.958ZM803.795 284.769C823.663 282.898 830.678 280.329 830.678 271.212C830.678 263.966 824.13 258.361 811.042 258.361C798.42 258.361 787.9 263.499 779.489 273.788L762.19 259.059C773.646 242.934 789.771 234.982 810.574 234.982C839.794 234.982 858.021 249.007 858.021 273.083V325.208C858.021 333.39 861.065 334.325 867.843 334.325H868.541V356.062C865.735 357.696 861.295 358.632 855.453 358.632C849.142 358.632 844.235 356.761 840.493 353.026C838.859 351.386 837.457 348.816 836.284 345.312C828.102 354.896 814.783 359.805 796.319 359.805C770.372 359.805 752.836 345.543 752.836 324.042C752.836 299.966 768.968 287.813 803.795 284.769Z" fill="white"/>
<path fill-rule="evenodd" clip-rule="evenodd" d="M896.915 320.531C902.29 328.949 913.745 335.26 928 335.26C942.729 335.26 949.04 329.647 949.04 322.401C949.04 318.429 946.233 315.156 942.262 313.054C939.692 311.421 934.785 309.78 931.273 308.615C927.769 307.442 920.754 305.341 916.782 303.707C897.85 296.922 887.798 287.344 887.798 270.514C887.798 259.526 891.77 251.115 899.721 244.797C907.902 238.487 917.717 235.219 929.403 235.219C946.003 235.219 958.624 241.062 967.504 252.511L951.846 269.111C946.701 262.563 938.987 259.296 928.936 259.296C920.293 259.296 914.681 263.498 914.681 269.809C914.681 273.788 916.782 275.889 920.056 277.99C921.927 279.163 926.603 281.034 929.641 282.199C933.144 283.135 939.692 285.473 944.362 287.107C966.101 294.821 975.922 305.341 975.922 322.171C975.922 343.909 959.56 359.567 927.539 359.567C903.931 359.567 886.394 350.45 878.918 335.727L896.915 320.531Z" fill="white"/>
<path fill-rule="evenodd" clip-rule="evenodd" d="M694.537 334.32C684.194 334.32 675.587 330.849 668.577 323.84C661.776 316.829 658.305 307.944 658.305 297.394C658.305 286.843 661.776 277.959 668.577 270.948C675.587 263.938 684.194 260.467 694.537 260.467C706.197 260.467 716.261 264.702 724.453 273.308L741.735 255.331C729.102 241.727 713.416 234.995 694.537 234.995C676.49 234.995 661.29 241.033 648.934 252.971C636.511 264.91 630.472 279.624 630.472 297.394C630.472 310.026 633.525 321.269 639.842 330.987L614.715 356.114L614.872 356.27H650.306L657.541 349.034C668.16 356.253 680.516 359.793 694.537 359.793C713.416 359.793 729.102 353.059 741.735 339.456L724.453 321.478C716.261 330.086 706.197 334.32 694.537 334.32Z" fill="white"/>
</svg>
