<?xml version="1.0" encoding="UTF-8" standalone="no"?> <!-- Created with Vectornator for iOS (http://vectornator.io/) --><!DOCTYPE svg PUBLIC "-//W3C//DTD SVG 1.1//EN" "http://www.w3.org/Graphics/SVG/1.1/DTD/svg11.dtd">
<svg style="fill-rule:evenodd;clip-rule:evenodd;stroke-linecap:round;stroke-linejoin:round;" xmlns:vectornator="http://vectornator.io" xmlns:xlink="http://www.w3.org/1999/xlink" xmlns="http://www.w3.org/2000/svg" xml:space="preserve" version="1.1" viewBox="0 0 1396.77 751.67">
<metadata>
<vectornator:setting key="RulersVisible" value="1"/>
<vectornator:setting key="Units" value="Points"/>
<vectornator:setting key="DynamicGuides" value="1"/>
<vectornator:setting key="GuidesVisible" value="1"/>
<vectornator:setting key="CMYKEnabledKey" value="0"/>
<vectornator:setting key="SnapToGuides" value="1"/>
<vectornator:setting key="GridSpacing" value="36"/>
</metadata>
<defs/>
<g id="Layer 1" vectornator:layerName="Layer 1">
<path d="M0.419907+0L28.4679+0L28.4679+124.355C28.4679+135.81+32.2099+140.717+42.4929+140.717C45.7669+140.717+48.5659+140.48+50.9039+139.782L50.9039+164.793C47.6369+165.729+43.1909+166.197+37.5849+166.197C12.8039+166.197+0.419907+153.575+0.419907+128.096L0.419907+0Z" opacity="1" fill="#000000"/>
<path d="M150.01+91.3984C150.01+84.3824+146.973+78.3094+141.13+73.3954C135.287+68.2574+128.509+65.6884+120.328+65.6884C111.678+65.6884+103.965+68.2574+97.6547+73.1644C91.3437+78.0724+87.8397+84.1524+87.1347+91.3984L150.01+91.3984ZM58.6177+104.019C58.6177+85.3184+64.4607+70.3584+75.9167+58.9034C87.6017+47.4554+102.331+41.8424+120.328+41.8424C137.388+41.8424+151.413+47.4554+162.17+58.9034C173.151+70.3584+178.533+84.3824+178.533+101.213C178.533+104.717+178.296+107.991+178.065+111.028L86.4357+111.028C87.3717+129.729+101.159+141.882+121.961+141.882C134.115+141.882+144.635+137.442+153.751+128.326L170.582+144.689C157.256+158.713+140.9+165.729+121.026+165.729C102.562+165.729+87.3717+160.116+75.9167+149.128C64.4607+138.148+58.6177+123.419+58.6177+104.955L58.6177+104.019Z" opacity="1" fill="#000000"/>
<path d="M277.848+130.435C284.864+123.189+288.368+114.54+288.368+104.02C288.368+93.4996+284.864+84.8506+277.848+77.8416C270.832+70.5956+262.19+67.0846+251.901+67.0846C241.381+67.0846+232.732+70.5956+225.723+77.8416C218.945+84.8506+215.44+93.4996+215.44+104.02C215.44+114.54+218.945+123.189+225.723+130.435C232.732+137.443+241.381+140.948+251.901+140.948C262.19+140.948+270.832+137.443+277.848+130.435M187.622+104.02C187.622+86.4906+193.933+71.5316+206.324+59.6086C218.707+47.6846+233.905+41.6116+251.901+41.6116C269.904+41.6116+285.094+47.6846+297.485+59.6086C309.869+71.5316+316.179+86.4906+316.179+104.02C316.179+121.548+309.869+136.508+297.485+148.431C285.094+160.354+269.904+166.427+251.901+166.427C233.905+166.427+218.707+160.354+206.324+148.431C193.933+136.508+187.622+121.548+187.622+104.02" opacity="1" fill="#000000"/>
<path d="M0+356.53L0+238.724L27.812+238.724L27.812+256.252C33.424+243.868+46.282+236.385+62.876+236.385C66.149+236.385+68.956+236.622+71.287+237.084L71.287+264.203C67.783+263.498+63.811+263.031+59.602+263.031C40.202+263.031+27.812+275.184+27.812+294.59L27.812+356.53L0+356.53Z" opacity="1" fill="#000000"/>
<path d="M172.501+285.006C172.501+277.991+169.464+271.918+163.621+267.003C157.778+261.865+151+259.296+142.819+259.296C134.17+259.296+126.456+261.865+120.146+266.773C113.835+271.68+110.331+277.76+109.626+285.006L172.501+285.006ZM81.1085+297.627C81.1085+278.926+86.9515+263.966+98.4075+252.511C110.093+241.063+124.823+235.45+142.819+235.45C159.88+235.45+173.904+241.063+184.661+252.511C195.642+263.966+201.017+277.991+201.017+294.821C201.017+298.325+200.787+301.599+200.556+304.636L108.927+304.636C109.863+323.337+123.65+335.49+144.453+335.49C156.605+335.49+167.126+331.051+176.242+321.934L193.073+338.297C179.747+352.321+163.391+359.337+143.517+359.337C125.053+359.337+109.863+353.725+98.4075+342.736C86.9515+331.756+81.1085+317.026+81.1085+298.563L81.1085+297.627Z" opacity="1" fill="#000000"/>
<path d="M306.385+323.337C313.163+316.559+316.437+307.91+316.437+297.627C316.437+287.345+313.163+278.695+306.385+271.918C299.844+265.139+291.662+261.628+281.61+261.628C271.558+261.628+262.909+265.139+255.9+271.918C249.122+278.695+245.611+287.345+245.611+297.627C245.611+307.91+249.122+316.559+255.9+323.337C262.909+330.115+271.558+333.627+281.61+333.627C291.662+333.627+299.844+330.115+306.385+323.337M219.671+356.53L219.671+193.608L247.719+193.608L247.719+255.785C251.691+244.33+265.952+236.155+285.352+236.155C301.945+236.155+315.969+241.998+327.187+253.914C338.643+265.607+344.255+280.099+344.255+297.627C344.255+315.156+338.643+329.648+327.187+341.57C315.969+353.257+301.945+359.1+285.352+359.1C265.952+359.1+251.691+350.918+247.719+339.47L247.719+356.53L219.671+356.53Z" opacity="1" fill="#000000"/>
<path d="M448.05+324.042C455.066+316.796+458.57+308.147+458.57+297.627C458.57+287.107+455.066+278.459+448.05+271.45C441.035+264.204+432.392+260.692+422.103+260.692C411.583+260.692+402.941+264.204+395.925+271.45C389.147+278.459+385.643+287.107+385.643+297.627C385.643+308.147+389.147+316.796+395.925+324.042C402.941+331.051+411.583+334.555+422.103+334.555C432.392+334.555+441.035+331.051+448.05+324.042M357.825+297.627C357.825+280.099+364.135+265.139+376.526+253.216C388.91+241.293+404.107+235.22+422.103+235.22C440.106+235.22+455.296+241.293+467.687+253.216C480.071+265.139+486.382+280.099+486.382+297.627C486.382+315.156+480.071+330.115+467.687+342.038C455.296+353.961+440.106+360.034+422.103+360.034C404.107+360.034+388.91+353.961+376.526+342.038C364.135+330.115+357.825+315.156+357.825+297.627" opacity="1" fill="#000000"/>
<path d="M504.5+238.724L532.779+238.724L532.779+307.442C532.779+325.208+542.831+333.857+558.496+333.857C574.153+333.857+584.206+324.977+584.206+307.211L584.206+238.724L612.491+238.724L612.491+309.082C612.491+325.445+607.347+338.066+597.064+346.716C586.774+355.364+573.923+359.567+558.258+359.567C542.601+359.567+529.742+355.364+519.69+346.716C509.638+338.066+504.5+325.913+504.5+309.78L504.5+238.724Z" opacity="1" fill="#000000"/>
<path d="M800.521+335.958C819.222+335.958+830.677+327.547+830.677+312.587L830.677+299.498C829.504+300.901+827.403+302.067+824.834+303.002C819.458+304.873+815.948+305.341+804.73+306.507C788.367+308.378+780.186+313.522+780.186+321.703C780.186+330.82+787.668+335.958+800.521+335.958M803.794+284.769C823.662+282.898+830.677+280.329+830.677+271.212C830.677+263.966+824.129+258.361+811.041+258.361C798.419+258.361+787.899+263.499+779.488+273.788L762.189+259.059C773.645+242.934+789.77+234.982+810.573+234.982C839.793+234.982+858.02+249.007+858.02+273.083L858.02+325.208C858.02+333.39+861.064+334.325+867.842+334.325L868.54+334.325L868.54+356.062C865.734+357.696+861.294+358.632+855.452+358.632C849.141+358.632+844.234+356.761+840.492+353.026C838.858+351.386+837.456+348.816+836.283+345.312C828.101+354.896+814.782+359.805+796.318+359.805C770.371+359.805+752.835+345.543+752.835+324.042C752.835+299.966+768.967+287.813+803.794+284.769" opacity="1" fill="#000000"/>
<path d="M896.914+320.531C902.289+328.949+913.744+335.26+927.999+335.26C942.728+335.26+949.039+329.647+949.039+322.401C949.039+318.429+946.232+315.156+942.261+313.054C939.691+311.421+934.784+309.78+931.272+308.615C927.768+307.442+920.753+305.341+916.781+303.707C897.849+296.922+887.797+287.344+887.797+270.514C887.797+259.526+891.769+251.115+899.72+244.797C907.901+238.487+917.716+235.219+929.402+235.219C946.002+235.219+958.623+241.062+967.503+252.511L951.845+269.111C946.7+262.563+938.986+259.296+928.935+259.296C920.292+259.296+914.68+263.498+914.68+269.809C914.68+273.788+916.781+275.889+920.055+277.99C921.926+279.163+926.602+281.034+929.64+282.199C933.143+283.135+939.691+285.473+944.361+287.107C966.1+294.821+975.921+305.341+975.921+322.171C975.921+343.909+959.559+359.567+927.538+359.567C903.93+359.567+886.393+350.45+878.917+335.727L896.914+320.531Z" opacity="1" fill="#000000"/>
<path d="M694.536+334.32C684.193+334.32+675.586+330.849+668.576+323.84C661.775+316.829+658.304+307.944+658.304+297.394C658.304+286.843+661.775+277.959+668.576+270.948C675.586+263.938+684.193+260.467+694.536+260.467C706.196+260.467+716.26+264.702+724.452+273.308L741.734+255.331C729.101+241.727+713.415+234.995+694.536+234.995C676.489+234.995+661.289+241.033+648.933+252.971C636.51+264.91+630.471+279.624+630.471+297.394C630.471+310.026+633.524+321.269+639.841+330.987L614.714+356.114L614.871+356.27L650.305+356.27L657.54+349.034C668.159+356.253+680.515+359.793+694.536+359.793C713.415+359.793+729.101+353.059+741.734+339.456L724.452+321.478C716.26+330.086+706.196+334.32+694.536+334.32" opacity="1" fill="#000000"/>
</g>
</svg>
