<svg id="Filled" height="45" viewBox="0 0 512 512" width="45" xmlns="http://www.w3.org/2000/svg"><rect fill="#7e8488" height="432" rx="16" width="368" x="72" y="55.687"/><path d="m104 103.687h304v352h-304z" fill="#fae8d8"/><path d="m376 119.687v16h-240v-16a32 32 0 0 1 32-32h64l-8.545-34.18a24 24 0 0 1 23.284-29.82h18.522a24 24 0 0 1 23.284 29.82l-8.545 34.18h64a32 32 0 0 1 32 32z" fill="#6a7073"/><path d="m64 471.687a24.027 24.027 0 0 0 24 24h336a24.027 24.027 0 0 0 24-24v-400a24.027 24.027 0 0 0 -24-24h-126.735a32.006 32.006 0 0 0 -32-32h-18.526a32.006 32.006 0 0 0 -32 32h-126.739a24.027 24.027 0 0 0 -24 24zm170.127-433.847a15.9 15.9 0 0 1 12.612-6.153h18.522a16 16 0 0 1 15.523 19.88l-8.545 34.179a8 8 0 0 0 7.761 9.941h64a24.027 24.027 0 0 1 24 24v8h-224v-8a24.027 24.027 0 0 1 24-24h64a8 8 0 0 0 7.761-9.941l-8.545-34.179a15.9 15.9 0 0 1 2.911-13.727zm141.873 105.847a8 8 0 0 0 8-8v-16a40.021 40.021 0 0 0 -.805-8h16.805v336h-288v-336h16.805a40.021 40.021 0 0 0 -.805 8v16a8 8 0 0 0 8 8zm-296-72a8.009 8.009 0 0 1 8-8h129.754l4 16h-53.754a39.962 39.962 0 0 0 -31.978 16h-32.022a8 8 0 0 0 -8 8v352a8 8 0 0 0 8 8h304a8 8 0 0 0 8-8v-352a8 8 0 0 0 -8-8h-32.022a39.962 39.962 0 0 0 -31.978-16h-53.754l4-16h129.754a8.009 8.009 0 0 1 8 8v400a8.009 8.009 0 0 1 -8 8h-336a8.009 8.009 0 0 1 -8-8z"/><circle cx="256" cy="55.687" r="8"/><circle cx="152" cy="199.687" r="8"/><path d="m184 207.687h176a8 8 0 0 0 0-16h-176a8 8 0 0 0 0 16z"/><circle cx="152" cy="247.687" r="8"/><path d="m184 255.687h176a8 8 0 0 0 0-16h-176a8 8 0 0 0 0 16z"/><circle cx="152" cy="295.687" r="8"/><path d="m184 303.687h176a8 8 0 0 0 0-16h-176a8 8 0 0 0 0 16z"/><circle cx="152" cy="343.687" r="8"/><path d="m184 351.687h176a8 8 0 0 0 0-16h-176a8 8 0 0 0 0 16z"/><circle cx="152" cy="391.687" r="8"/><path d="m184 399.687h176a8 8 0 0 0 0-16h-176a8 8 0 0 0 0 16z"/></svg>