<svg width="30" height="30" viewBox="0 0 30 30" fill="none" xmlns="http://www.w3.org/2000/svg">
<path d="M15 0C6.728 0 0 6.728 0 15C0 23.272 6.728 30 15 30C23.272 30 30 23.272 30 15C30 6.728 23.272 0 15 0ZM15 28C7.832 28 2 22.168 2 15C2 7.832 7.832 2 15 2C22.168 2 28 7.832 28 15C28 22.168 22.168 28 15 28Z" fill="#808080"/>
<path d="M6.02344 23.976L18.5894 18.59L23.9754 6.02399L11.4094 11.41L6.02344 23.976ZM12.5094 13.924L16.0774 17.492L9.83344 20.168L12.5094 13.924ZM17.4894 16.076L13.9234 12.51L20.1674 9.83399L17.4894 16.076Z" fill="#808080"/>
</svg>
