<svg id="Filled" height="45" viewBox="0 0 512 512" width="45" xmlns="http://www.w3.org/2000/svg"><circle cx="256" cy="303.687" fill="#7e8488" r="168"/><path d="m256 71.687a16 16 0 0 1 16 16v40a0 0 0 0 1 0 0h-32a0 0 0 0 1 0 0v-40a16 16 0 0 1 16-16z" fill="#efdece"/><path d="m256 119.687a184 184 0 1 0 184 184 184 184 0 0 0 -184-184zm0 336a152 152 0 1 1 152-152 152 152 0 0 1 -152 152z" fill="#fae8d8"/><circle cx="256" cy="303.687" fill="#606669" r="96"/><path d="m232 303.687 24-96 24 96-24 96z" fill="#fabf72"/><circle cx="256" cy="303.687" fill="#fabf72" r="24"/><path d="m232 113.184c-94.583 11.847-168 92.76-168 190.5 0 105.869 86.131 192 192 192s192-86.131 192-192c0-97.743-73.417-178.656-168-190.5v-25.514a40 40 0 1 0 -48 0zm200 190.5c0 97.046-78.953 176-176 176s-176-78.954-176-176 78.953-176 176-176 176 78.956 176 176.003zm-176-192c-2.681 0-5.345.069-8 .179v-24.176a8 8 0 0 1 16 0v24.179c-2.655-.11-5.319-.179-8-.179zm-24-56a24 24 0 1 1 41.868 16 23.956 23.956 0 0 0 -35.736 0 24.069 24.069 0 0 1 -6.132-15.997z"/><path d="m256 199.687a104 104 0 1 0 104 104 104.118 104.118 0 0 0 -104-104zm-8.007 134.985a32.09 32.09 0 0 0 16.014 0l-8.007 32.028zm24.007-30.985a16 16 0 1 1 -16-16 16.019 16.019 0 0 1 16 16zm-16-32a31.944 31.944 0 0 0 -8.007 1.014l8.007-32.029 8.007 32.029a31.944 31.944 0 0 0 -8.007-1.014zm-88 32a88.125 88.125 0 0 1 77.6-87.387l-18.324 73.3a31.921 31.921 0 0 0 0 28.168l18.324 73.3a88.125 88.125 0 0 1 -77.6-87.381zm98.4 87.382 18.066-72.264a8.2 8.2 0 0 0 .162-.847 31.909 31.909 0 0 0 .1-28.356l-18.328-73.302a88 88 0 0 1 0 174.765z"/><path d="m256 143.687c-88.224 0-160 71.775-160 160s71.776 160 160 160 160-71.776 160-160-71.776-160-160-160zm128 168h15.774a143.426 143.426 0 0 1 -36.5 87.956l-13.614-13.614a8 8 0 0 0 -11.314 11.315l13.614 13.613a143.422 143.422 0 0 1 -87.96 36.504v-15.774a8 8 0 0 0 -16 0v15.774a143.422 143.422 0 0 1 -87.957-36.5l13.614-13.613a8 8 0 0 0 -11.314-11.315l-13.614 13.614a143.426 143.426 0 0 1 -36.5-87.956h15.771a8 8 0 0 0 0-16h-15.774a143.426 143.426 0 0 1 36.5-87.957l13.614 13.614a8 8 0 1 0 11.314-11.315l-13.614-13.613a143.422 143.422 0 0 1 87.96-36.508v15.775a8 8 0 0 0 16 0v-15.775a143.422 143.422 0 0 1 87.957 36.5l-13.614 13.613a8 8 0 0 0 11.314 11.315l13.614-13.614a143.426 143.426 0 0 1 36.5 87.957h-15.771a8 8 0 0 0 0 16z"/></svg>