<svg id="Capa_1" enable-background="new 0 0 512 512" height="30" viewBox="0 0 512 512" width="30" xmlns="http://www.w3.org/2000/svg"><g><path d="m256 469.333c-117.632 0-213.333-95.701-213.333-213.333s95.701-213.333 213.333-213.333 213.333 95.701 213.333 213.333-95.701 213.333-213.333 213.333zm0-384c-94.101 0-170.667 76.565-170.667 170.667s76.566 170.667 170.667 170.667 170.667-76.566 170.667-170.667-76.566-170.667-170.667-170.667z" fill="#cfd8dc"/><path d="m362.667 256c0 58.901-47.744 106.667-106.667 106.667s-106.667-47.766-106.667-106.667 47.744-106.667 106.667-106.667 106.667 47.766 106.667 106.667z" fill="#4caf50"/><g fill="#607d8b"><path d="m256 106.667c-11.797 0-21.333-9.557-21.333-21.333v-64c0-11.777 9.536-21.334 21.333-21.334s21.333 9.557 21.333 21.333v64c0 11.776-9.536 21.334-21.333 21.334z"/><path d="m256 512c-11.797 0-21.333-9.557-21.333-21.333v-64c0-11.776 9.536-21.333 21.333-21.333s21.333 9.557 21.333 21.333v64c0 11.776-9.536 21.333-21.333 21.333z"/><path d="m85.333 277.333h-64c-11.797 0-21.333-9.557-21.333-21.333s9.536-21.333 21.333-21.333h64c11.797 0 21.333 9.557 21.333 21.333s-9.535 21.333-21.333 21.333z"/></g><path d="m86.656 277.291c-.448.021-.875.043-1.323.043h-41.6c10.048 100.629 90.325 180.907 190.933 190.933v-41.6c0-.448.021-.875.043-1.323-77.12-9.643-138.41-70.933-148.053-148.053zm148.011-233.558c-100.63 10.027-180.907 90.304-190.934 190.934h41.6c.448 0 .875.021 1.323.043 9.643-77.12 70.933-138.411 148.053-148.053-.021-.448-.043-.875-.043-1.323v-41.601z" fill="#b4bcc0"/><path d="m256 149.333c-58.923 0-106.667 47.765-106.667 106.667s47.744 106.667 106.667 106.667z" fill="#429846"/><g fill="#546d79"><path d="m256 0c-11.797 0-21.333 9.557-21.333 21.333v22.4 41.6c0 .448.021.875.043 1.323.683 11.157 9.941 20.011 21.291 20.011v-106.667z"/><path d="m256 405.333c-11.349 0-20.608 8.853-21.291 20.011-.021.448-.043.875-.043 1.323v41.6 22.4c0 11.776 9.536 21.333 21.333 21.333v-106.667z"/><path d="m85.333 234.667h-41.6-22.4c-11.797 0-21.333 9.557-21.333 21.333s9.536 21.333 21.333 21.333h22.4 41.6c.448 0 .875-.021 1.323-.043 11.179-.683 20.011-9.963 20.011-21.291s-8.832-20.608-20.011-21.291c-.448-.02-.875-.041-1.323-.041z"/></g><path d="m490.667 277.333h-64c-11.797 0-21.333-9.557-21.333-21.333s9.536-21.333 21.333-21.333h64c11.797 0 21.333 9.557 21.333 21.333s-9.536 21.333-21.333 21.333z" fill="#607d8b"/></g></svg>