<svg width="50" height="38" viewBox="0 0 50 38" fill="none" xmlns="http://www.w3.org/2000/svg">
<path d="M20.3333 25.8748H7V29.6248H20.3333V25.8748Z" fill="#808080"/>
<path d="M48.3333 0H1.66667C1.22464 0 0.800716 0.197544 0.488155 0.549175C0.175595 0.900806 0 1.37772 0 1.875V35.625C0 36.1223 0.175595 36.5992 0.488155 36.9508C0.800716 37.3025 1.22464 37.5 1.66667 37.5H48.3333C48.7754 37.5 49.1993 37.3025 49.5118 36.9508C49.8244 36.5992 50 36.1223 50 35.625V1.875C50 1.37772 49.8244 0.900806 49.5118 0.549175C49.1993 0.197544 48.7754 0 48.3333 0ZM46.6667 3.75V9.375H3.33333V3.75H46.6667ZM3.33333 33.75V15.8333H46.6667V33.75H3.33333Z" fill="#808080"/>
</svg>
