<svg width="20" height="20" viewBox="0 0 20 20" fill="none" xmlns="http://www.w3.org/2000/svg">
<g clip-path="url(#clip0)">
<path d="M19.1946 6.13478C18.6787 4.92568 17.9423 3.84093 17.0061 2.91076C15.1149 1.0321 12.6291 0 9.99908 0C9.97726 0 9.95498 0.000152588 9.93316 0.000152588C7.25723 0.0177002 4.74946 1.07834 2.87171 2.9866C0.994428 4.89455 -0.0251628 7.42003 0.000471875 10.0981C0.0261066 12.7594 1.07667 15.251 2.95884 17.1136C4.83979 18.9752 7.33994 20.0001 10 20H10.0047C11.9534 19.9992 13.8422 19.4371 15.4666 18.3748L14.6115 17.0671C13.2417 17.9629 11.6484 18.4367 10.004 18.4375C10.0026 18.4375 10.0015 18.4375 10.0001 18.4375C5.39185 18.4375 1.60722 14.6904 1.56297 10.083C1.54115 7.82317 2.40159 5.69228 3.98545 4.08248C5.56977 2.47238 7.6857 1.57745 9.94339 1.56265C9.96185 1.5625 9.98016 1.5625 9.99878 1.5625C12.2131 1.5625 14.3088 2.43377 15.9047 4.01931C17.5381 5.64193 18.4375 7.79295 18.4375 10.0763V10.3711C18.4375 11.7174 17.3422 12.8125 15.9961 12.8125C14.65 12.8125 13.5547 11.7174 13.5547 10.3711V5.42968H11.9922V6.21886C11.4333 5.84395 10.7613 5.62499 10.0391 5.62499C8.10059 5.62499 6.52344 7.20213 6.52344 9.14061V10.8594C6.52344 12.7978 8.10059 14.375 10.0391 14.375C11.2157 14.375 12.2589 13.7939 12.8975 12.9039C13.6323 13.8012 14.7484 14.375 15.9961 14.375C18.2039 14.375 20 12.5789 20 10.3711V10.0763C20 8.71321 19.729 7.38707 19.1946 6.13478ZM11.9922 10.8594C11.9922 11.9363 11.116 12.8125 10.0391 12.8125C8.9621 12.8125 8.08594 11.9363 8.08594 10.8594V9.14061C8.08594 8.06364 8.9621 7.18749 10.0391 7.18749C11.116 7.18749 11.9922 8.06364 11.9922 9.14061V10.8594Z" fill="#808080"/>
</g>
<defs>
<clipPath id="clip0">
<rect width="20" height="20" fill="white"/>
</clipPath>
</defs>
</svg>
