<svg width="50" height="52" viewBox="0 0 50 52" fill="none" xmlns="http://www.w3.org/2000/svg">
<path d="M45.9961 42.5846V20.7474C45.0799 21.2321 44.0983 21.6216 43.0664 21.9004V42.5846H6.93359V19.375H28.4796C28.783 19.0806 29.0791 18.7769 29.3667 18.4642C28.7042 17.8189 28.1151 17.1088 27.6108 16.3477H4.00391V42.5846H0V47.1257C0 49.6296 1.97139 51.6667 4.39453 51.6667H45.6055C48.0286 51.6667 50 49.6296 50 47.1257V42.5846H45.9961ZM47.0703 47.1257C47.0703 47.9603 46.4132 48.6393 45.6055 48.6393H4.39453C3.58682 48.6393 2.92969 47.9603 2.92969 47.1257V45.612H47.0703V47.1257Z" fill="#808080"/>
<path d="M39.2578 0C33.3346 0 28.5156 4.34575 28.5156 9.6875C28.5156 13.1604 30.5528 16.2116 33.6058 17.9221C32.6742 19.2486 31.6235 20.48 30.4688 21.5981C33.3966 21.3478 36.1799 20.5718 38.7313 19.3633C38.9058 19.371 39.0813 19.375 39.2578 19.375C45.1811 19.375 50 15.0292 50 9.6875C50 4.34575 45.1811 0 39.2578 0ZM39.2578 16.3477C34.95 16.3477 31.4453 13.36 31.4453 9.6875C31.4453 6.01503 34.95 3.02734 39.2578 3.02734C43.5656 3.02734 47.0703 6.01503 47.0703 9.6875C47.0703 13.36 43.5656 16.3477 39.2578 16.3477Z" fill="#808080"/>
<path d="M28.7649 30.292C29.1643 29.6082 29.3945 28.8077 29.3945 27.9526V25.9343C29.3945 23.4304 27.4231 21.3933 25 21.3933C22.5769 21.3933 20.6055 23.4304 20.6055 25.9343V27.9526C20.6055 28.8077 20.8357 29.6082 21.2351 30.292C17.9903 31.7868 15.7227 35.1511 15.7227 39.0528V40.5665H34.2773V39.0528C34.2773 35.1511 32.0097 31.7868 28.7649 30.292ZM23.5352 25.9343C23.5352 25.0997 24.1923 24.4207 25 24.4207C25.8077 24.4207 26.4648 25.0997 26.4648 25.9343V27.9526C26.4648 28.7872 25.8077 29.4662 25 29.4662C24.1923 29.4662 23.5352 28.7872 23.5352 27.9526V25.9343ZM18.8229 37.5391C19.4859 34.6495 22.0038 32.4936 25 32.4936C27.9962 32.4936 30.5141 34.6495 31.1771 37.5391H18.8229Z" fill="#808080"/>
</svg>
