<svg width="20" height="20" viewBox="0 0 20 20" fill="none" xmlns="http://www.w3.org/2000/svg">
<path d="M17.0282 2.90436C15.1494 1.03256 12.65 0.00106812 9.98993 0C7.33582 0 4.83246 1.03058 2.94128 2.90192C1.04675 4.77646 0.00244141 7.26761 0 9.90738V9.91043V9.91226C0.000305176 11.51 0.420074 13.1218 1.21689 14.593L0.0273132 20L5.49652 18.756C6.88171 19.454 8.42728 19.8221 9.98611 19.8227H9.99008C12.6437 19.8227 15.1471 18.792 17.0386 16.9205C18.9348 15.0444 19.9796 12.5565 19.9808 9.91501C19.9815 7.29218 18.9331 4.8024 17.0282 2.90436ZM9.98993 18.2617H9.98642C8.58673 18.2611 7.19986 17.9097 5.97595 17.2452L5.71732 17.1048L2.08054 17.932L2.87048 14.3419L2.7182 14.0793C1.96106 12.7736 1.56097 11.3322 1.56097 9.91058C1.56387 5.30899 5.3447 1.56097 9.98962 1.56097C12.2336 1.56189 14.342 2.43179 15.9265 4.01016C17.5349 5.61295 18.4204 7.70981 18.4196 9.91455C18.4178 14.5172 14.6362 18.2617 9.98993 18.2617Z" fill="#808080"/>
<path d="M7.27286 5.5415H6.83493C6.6825 5.5415 6.435 5.59857 6.22565 5.82639C6.01614 6.05435 5.42578 6.60535 5.42578 7.72595C5.42578 8.84656 6.24472 9.92932 6.35886 10.0815C6.47314 10.2334 7.93967 12.6065 10.2624 13.5194C12.1927 14.2781 12.5857 14.1272 13.0045 14.0892C13.4235 14.0513 14.3566 13.5383 14.547 13.0066C14.7375 12.4748 14.7375 12.0189 14.6804 11.9236C14.6232 11.8287 14.4707 11.7718 14.2423 11.658C14.0137 11.544 12.8937 10.9837 12.6842 10.9076C12.4747 10.8317 12.3224 10.7937 12.17 11.0219C12.0176 11.2495 11.5688 11.7762 11.4355 11.9282C11.3022 12.0804 11.1689 12.0994 10.9403 11.9854C10.7117 11.8712 9.98328 11.6264 9.11032 10.8506C8.43085 10.2469 7.95935 9.4769 7.82599 9.24893C7.69278 9.02112 7.8118 8.89783 7.92639 8.78415C8.02908 8.68222 8.16779 8.54275 8.28207 8.40985C8.39621 8.27679 8.42871 8.18188 8.50501 8.02991C8.58115 7.87793 8.543 7.74487 8.48593 7.63104C8.42871 7.51706 7.99017 6.39081 7.78693 5.94037H7.78708C7.61588 5.56104 7.43567 5.54822 7.27286 5.5415Z" fill="#808080"/>
</svg>
