<svg width="50" height="41" viewBox="0 0 50 41" fill="none" xmlns="http://www.w3.org/2000/svg">
<path d="M44.8006 3.1901H42.3761V0H38.3351V3.1901H11.6649V0H7.62392V3.1901H5.19935C1.85709 3.1901 0 5.33673 0 7.97526V36.0482C0 38.6867 1.85709 40.8333 5.19935 40.8333H44.8006C48.1429 40.8333 50 38.6867 50 36.0482V7.97526C50 5.33673 48.1429 3.1901 44.8006 3.1901ZM46.8211 36.0482C46.8211 36.9277 45.9147 37.6432 44.8006 37.6432H5.19935C4.08526 37.6432 3.17888 36.9277 3.17888 36.0482V11.8034H46.8211V36.0482ZM46.8211 11.8034H3.17888V7.97526C3.17888 7.09575 4.08526 6.38021 5.19935 6.38021H7.62392V9.57031H11.6649V6.38021H38.3351V9.57031H42.3761V6.38021H44.8006C45.9147 6.38021 46.8211 7.09575 46.8211 7.97526V11.8034Z" fill="#808080"/>
<path d="M10.9355 14.5186H6.89453V17.7087H10.9355V14.5186Z" fill="#808080"/>
<path d="M18.6933 14.5181H14.6523V17.7082H18.6933V14.5181Z" fill="#808080"/>
<path d="M26.4472 14.5181H22.4062V17.7082H26.4472V14.5181Z" fill="#808080"/>
<path d="M35.0761 14.5186H31.0352V17.7087H35.0761V14.5186Z" fill="#808080"/>
<path d="M42.8339 14.5186H38.793V17.7087H42.8339V14.5186Z" fill="#808080"/>
<path d="M10.9355 21.7778H6.89453V24.9679H10.9355V21.7778Z" fill="#808080"/>
<path d="M18.6933 21.7783H14.6523V24.9684H18.6933V21.7783Z" fill="#808080"/>
<path d="M26.4472 21.7783H22.4062V24.9684H26.4472V21.7783Z" fill="#808080"/>
<path d="M35.0761 21.7778H31.0352V24.9679H35.0761V21.7778Z" fill="#808080"/>
<path d="M10.9355 29.0374H6.89453V32.2275H10.9355V29.0374Z" fill="#808080"/>
<path d="M18.6933 29.0371H14.6523V32.2272H18.6933V29.0371Z" fill="#808080"/>
<path d="M26.4472 29.0371H22.4062V32.2272H26.4472V29.0371Z" fill="#808080"/>
<path d="M35.0761 29.0374H31.0352V32.2275H35.0761V29.0374Z" fill="#808080"/>
<path d="M42.8339 21.7778H38.793V24.9679H42.8339V21.7778Z" fill="#808080"/>
</svg>
