<svg height="40" viewBox="0 0 512 512" width="40" xmlns="http://www.w3.org/2000/svg"><g><g><path d="m432 200a176.07 176.07 0 0 1 -120 166.9v33.1h-112v-33.1a176.02 176.02 0 1 1 232-166.9z" fill="#ffda44"/><path d="m176 400h160v24h-160z" fill="#e0e0e2"/><path d="m192 424h128a0 0 0 0 1 0 0v42a30 30 0 0 1 -30 30h-68a30 30 0 0 1 -30-30v-42a0 0 0 0 1 0 0z" fill="#3e3d42"/></g><g><path d="m440 200c0-101.46-82.54-184-184-184s-184 82.54-184 184a183.807 183.807 0 0 0 120 172.56v19.44h-16a8 8 0 0 0 -8 8v24a8 8 0 0 0 8 8h8v34a38.047 38.047 0 0 0 38 38h68a38.047 38.047 0 0 0 38-38v-34h8a8 8 0 0 0 8-8v-24a8 8 0 0 0 -8-8h-16v-19.44a183.807 183.807 0 0 0 120-172.56zm-128 266a22.026 22.026 0 0 1 -22 22h-68a22.026 22.026 0 0 1 -22-22v-34h112zm16-58v8h-144v-8zm-112-192h-24a24 24 0 1 1 24-24zm16 176v-160h48v160zm77.46-32.68a7.992 7.992 0 0 0 -5.46 7.58v25.1h-8v-160h24a40 40 0 1 0 -40-40v24h-48v-24a40 40 0 1 0 -40 40h24v160h-8v-25.1a7.992 7.992 0 0 0 -5.46-7.58 167.843 167.843 0 0 1 -114.54-159.32c0-92.64 75.36-168 168-168s168 75.36 168 168a167.843 167.843 0 0 1 -114.54 159.32zm-13.46-143.32v-24a24 24 0 1 1 24 24z"/><path d="m256 40a160.047 160.047 0 0 0 -148.788 101.052 8 8 0 1 0 14.873 5.9 144.052 144.052 0 0 1 133.915-90.952 8 8 0 0 0 0-16z"/></g></g></svg>