<svg width="90" height="34" viewBox="0 0 90 34" fill="none" xmlns="http://www.w3.org/2000/svg">
<path fill-rule="evenodd" clip-rule="evenodd" d="M0.0351562 0H2.6218V11.4683C2.6218 12.5247 2.9669 12.9772 3.91522 12.9772C4.21715 12.9772 4.47528 12.9554 4.6909 12.891V15.1976C4.38961 15.2839 3.97959 15.327 3.46259 15.327C1.17723 15.327 0.0351562 14.163 0.0351562 11.8133V0Z" fill="white"/>
<path fill-rule="evenodd" clip-rule="evenodd" d="M13.8346 8.42905C13.8346 7.78202 13.5546 7.22195 13.0157 6.76877C12.4769 6.29493 11.8518 6.05802 11.0973 6.05802C10.2996 6.05802 9.58827 6.29493 9.00632 6.74747C8.42431 7.20009 8.10116 7.7608 8.03615 8.42905H13.8346ZM5.40625 9.59294C5.40625 7.86833 5.9451 6.48869 7.0016 5.43229C8.07922 4.37653 9.43758 3.85889 11.0973 3.85889C12.6706 3.85889 13.964 4.37653 14.9561 5.43229C15.9688 6.48869 16.4651 7.78201 16.4651 9.33417C16.4651 9.65731 16.4432 9.95925 16.4219 10.2393H7.97168C8.058 11.964 9.3295 13.0848 11.2479 13.0848C12.3688 13.0848 13.3389 12.6753 14.1796 11.8346L15.7318 13.3436C14.5029 14.6369 12.9945 15.284 11.1617 15.284C9.45889 15.284 8.058 14.7663 7.0016 13.753C5.9451 12.7404 5.40625 11.3821 5.40625 9.67926V9.59294Z" fill="white"/>
<path fill-rule="evenodd" clip-rule="evenodd" d="M25.6255 12.0289C26.2725 11.3606 26.5957 10.563 26.5957 9.59284C26.5957 8.62262 26.2725 7.82499 25.6255 7.17861C24.9785 6.51037 24.1815 6.18658 23.2326 6.18658C22.2625 6.18658 21.4648 6.51037 20.8184 7.17861C20.1934 7.82499 19.8701 8.62262 19.8701 9.59284C19.8701 10.563 20.1934 11.3606 20.8184 12.0289C21.4648 12.6752 22.2625 12.9984 23.2326 12.9984C24.1815 12.9984 24.9785 12.6752 25.6255 12.0289ZM17.3047 9.59284C17.3047 7.97624 17.8867 6.59669 19.0294 5.49712C20.1714 4.39747 21.573 3.8374 23.2326 3.8374C24.8929 3.8374 26.2938 4.39747 27.4365 5.49712C28.5786 6.59669 29.1605 7.97624 29.1605 9.59284C29.1605 11.2093 28.5786 12.5889 27.4365 13.6885C26.2938 14.7881 24.8929 15.3481 23.2326 15.3481C21.573 15.3481 20.1714 14.7881 19.0294 13.6885C17.8867 12.5889 17.3047 11.2093 17.3047 9.59284Z" fill="white"/>
<path fill-rule="evenodd" clip-rule="evenodd" d="M0 32.8798V22.0155H2.56488V23.632C3.08243 22.4899 4.26822 21.7998 5.79856 21.7998C6.1004 21.7998 6.35927 21.8217 6.57424 21.8643V24.3652C6.25109 24.3002 5.88479 24.2572 5.49662 24.2572C3.70751 24.2572 2.56488 25.3779 2.56488 27.1676V32.8798H0Z" fill="white"/>
<path fill-rule="evenodd" clip-rule="evenodd" d="M15.9128 26.284C15.9128 25.6371 15.6327 25.077 15.0939 24.6238C14.555 24.1499 13.9299 23.913 13.1754 23.913C12.3778 23.913 11.6664 24.1499 11.0845 24.6025C10.5025 25.0551 10.1793 25.6158 10.1143 26.284H15.9128ZM7.48438 27.448C7.48438 25.7233 8.02323 24.3437 9.07973 23.2873C10.1574 22.2315 11.5158 21.7139 13.1754 21.7139C14.7488 21.7139 16.0422 22.2315 17.0342 23.2873C18.0469 24.3437 18.5426 25.6371 18.5426 27.1892C18.5426 27.5123 18.5214 27.8143 18.5001 28.0943H10.0499C10.1362 29.819 11.4076 30.9398 13.3261 30.9398C14.4468 30.9398 15.4171 30.5304 16.2578 29.6896L17.81 31.1986C16.581 32.492 15.0726 33.139 13.2398 33.139C11.537 33.139 10.1362 32.6214 9.07973 31.608C8.02323 30.5954 7.48438 29.237 7.48438 27.5343V27.448Z" fill="white"/>
<path fill-rule="evenodd" clip-rule="evenodd" d="M28.2548 29.8189C28.8798 29.1938 29.1818 28.3962 29.1818 27.4478C29.1818 26.4996 28.8798 25.7019 28.2548 25.0769C27.6515 24.4517 26.897 24.1279 25.97 24.1279C25.0429 24.1279 24.2453 24.4517 23.5989 25.0769C22.9738 25.7019 22.6501 26.4996 22.6501 27.4478C22.6501 28.3962 22.9738 29.1938 23.5989 29.8189C24.2453 30.4439 25.0429 30.7678 25.97 30.7678C26.897 30.7678 27.6515 30.4439 28.2548 29.8189ZM20.2578 32.88V17.855H22.8445V23.5891C23.2108 22.5327 24.5259 21.7788 26.3151 21.7788C27.8453 21.7788 29.1386 22.3176 30.1732 23.4165C31.2297 24.4949 31.7472 25.8314 31.7472 27.4478C31.7472 29.0644 31.2297 30.4009 30.1732 31.5003C29.1386 32.5781 27.8453 33.117 26.3151 33.117C24.5259 33.117 23.2108 32.3624 22.8445 31.3067V32.88H20.2578Z" fill="white"/>
<path fill-rule="evenodd" clip-rule="evenodd" d="M41.3207 29.8837C41.9678 29.2155 42.2909 28.4179 42.2909 27.4477C42.2909 26.4775 41.9678 25.68 41.3207 25.0336C40.6738 24.3653 39.8767 24.0415 38.9279 24.0415C37.9577 24.0415 37.1607 24.3653 36.5137 25.0336C35.8886 25.68 35.5654 26.4775 35.5654 27.4477C35.5654 28.4179 35.8886 29.2155 36.5137 29.8837C37.1607 30.5301 37.9577 30.8533 38.9279 30.8533C39.8767 30.8533 40.6738 30.5301 41.3207 29.8837ZM33 27.4477C33 25.8312 33.5819 24.4516 34.7246 23.352C35.8667 22.2524 37.2682 21.6924 38.9279 21.6924C40.5881 21.6924 41.989 22.2524 43.1317 23.352C44.2738 24.4516 44.8558 25.8312 44.8558 27.4477C44.8558 29.0643 44.2738 30.4438 43.1317 31.5434C41.989 32.6429 40.5881 33.203 38.9279 33.203C37.2682 33.203 35.8667 32.6429 34.7246 31.5434C33.5819 30.4438 33 29.0643 33 27.4477Z" fill="white"/>
<path fill-rule="evenodd" clip-rule="evenodd" d="M46.5273 22.0156H49.1353V28.3529C49.1353 29.9914 50.0623 30.789 51.507 30.789C52.9509 30.789 53.878 29.9701 53.878 28.3316V22.0156H56.4865V28.5042C56.4865 30.0132 56.0121 31.1772 55.0638 31.9749C54.1148 32.7724 52.9297 33.16 51.485 33.16C50.0411 33.16 48.8552 32.7724 47.9282 31.9749C47.0012 31.1772 46.5273 30.0564 46.5273 28.5686V22.0156Z" fill="white"/>
<path fill-rule="evenodd" clip-rule="evenodd" d="M73.8274 30.9826C75.552 30.9826 76.6084 30.207 76.6084 28.8273V27.6202C76.5003 27.7496 76.3065 27.8571 76.0696 27.9434C75.5738 28.1159 75.2501 28.1591 74.2155 28.2666C72.7065 28.4391 71.952 28.9135 71.952 29.668C71.952 30.5088 72.6421 30.9826 73.8274 30.9826ZM74.1292 26.2619C75.9615 26.0893 76.6084 25.8524 76.6084 25.0116C76.6084 24.3434 76.0046 23.8265 74.7976 23.8265C73.6335 23.8265 72.6634 24.3003 71.8877 25.2492L70.2923 23.8908C71.3488 22.4038 72.8359 21.6704 74.7544 21.6704C77.4491 21.6704 79.1301 22.9638 79.1301 25.1842V29.9912C79.1301 30.7458 79.4108 30.832 80.0359 30.832H80.1002V32.8367C79.8415 32.9874 79.432 33.0737 78.8932 33.0737C78.3112 33.0737 77.8587 32.9011 77.5136 32.5567C77.3629 32.4054 77.2336 32.1684 77.1254 31.8453C76.3709 32.7291 75.1426 33.1819 73.4398 33.1819C71.0469 33.1819 69.4297 31.8666 69.4297 29.8837C69.4297 27.6634 70.9174 26.5426 74.1292 26.2619Z" fill="white"/>
<path fill-rule="evenodd" clip-rule="evenodd" d="M82.7144 29.56C83.2101 30.3364 84.2665 30.9184 85.5811 30.9184C86.9395 30.9184 87.5215 30.4007 87.5215 29.7325C87.5215 29.3662 87.2626 29.0643 86.8964 28.8705C86.6594 28.7199 86.2069 28.5686 85.883 28.4611C85.5598 28.3529 84.9129 28.1592 84.5466 28.0085C82.8006 27.3828 81.8736 26.4995 81.8736 24.9474C81.8736 23.934 82.2399 23.1583 82.9732 22.5757C83.7277 21.9938 84.6328 21.6924 85.7105 21.6924C87.2414 21.6924 88.4053 22.2312 89.2243 23.2871L87.7803 24.818C87.3058 24.2141 86.5944 23.9128 85.6675 23.9128C84.8704 23.9128 84.3528 24.3003 84.3528 24.8823C84.3528 25.2493 84.5466 25.4431 84.8485 25.6368C85.0211 25.745 85.4523 25.9175 85.7325 26.025C86.0555 26.1113 86.6594 26.3269 87.0901 26.4776C89.0949 27.189 90.0006 28.1592 90.0006 29.7113C90.0006 31.716 88.4917 33.16 85.5386 33.16C83.3614 33.16 81.7441 32.3192 81.0547 30.9614L82.7144 29.56Z" fill="white"/>
<path fill-rule="evenodd" clip-rule="evenodd" d="M64.0528 30.8318C63.0989 30.8318 62.3052 30.5117 61.6587 29.8653C61.0315 29.2188 60.7114 28.3994 60.7114 27.4264C60.7114 26.4534 61.0315 25.6341 61.6587 24.9875C62.3052 24.3411 63.0989 24.021 64.0528 24.021C65.1281 24.021 66.0562 24.4115 66.8117 25.2052L68.4055 23.5473C67.2404 22.2927 65.7938 21.6719 64.0528 21.6719C62.3884 21.6719 60.9867 22.2287 59.8472 23.3297C58.7015 24.4307 58.1446 25.7877 58.1446 27.4264C58.1446 28.5914 58.4261 29.6282 59.0087 30.5245L56.6914 32.8417L56.7059 32.8561H59.9737L60.6409 32.1888C61.6202 32.8545 62.7597 33.181 64.0528 33.181C65.7938 33.181 67.2404 32.56 68.4055 31.3055L66.8117 29.6475C66.0562 30.4414 65.1281 30.8318 64.0528 30.8318Z" fill="white"/>
</svg>
