<svg width="90" height="34" viewBox="0 0 90 34" fill="none" xmlns="http://www.w3.org/2000/svg">
<path fill-rule="evenodd" clip-rule="evenodd" d="M0.0351562 0H2.6218V11.4683C2.6218 12.5247 2.9669 12.9772 3.91522 12.9772C4.21715 12.9772 4.47528 12.9554 4.6909 12.891V15.1976C4.38961 15.2839 3.97959 15.327 3.46259 15.327C1.17723 15.327 0.0351562 14.163 0.0351562 11.8133V0Z" fill="white"/>
<path fill-rule="evenodd" clip-rule="evenodd" d="M13.8346 8.42892C13.8346 7.78189 13.5546 7.22183 13.0157 6.76865C12.4769 6.29481 11.8518 6.05789 11.0973 6.05789C10.2996 6.05789 9.58827 6.29481 9.00632 6.74735C8.42431 7.19997 8.10116 7.76068 8.03615 8.42892H13.8346ZM5.40625 9.59282C5.40625 7.86821 5.9451 6.48857 7.0016 5.43217C8.07922 4.37641 9.43758 3.85876 11.0973 3.85876C12.6706 3.85876 13.964 4.37641 14.9561 5.43217C15.9688 6.48857 16.4651 7.78189 16.4651 9.33405C16.4651 9.65719 16.4432 9.95913 16.4219 10.2392H7.97168C8.058 11.9639 9.3295 13.0846 11.2479 13.0846C12.3688 13.0846 13.3389 12.6752 14.1796 11.8345L15.7318 13.3435C14.5029 14.6368 12.9945 15.2838 11.1617 15.2838C9.45889 15.2838 8.058 14.7662 7.0016 13.7529C5.9451 12.7403 5.40625 11.3819 5.40625 9.67914V9.59282Z" fill="white"/>
<path fill-rule="evenodd" clip-rule="evenodd" d="M25.6255 12.029C26.2725 11.3608 26.5957 10.5631 26.5957 9.59296C26.5957 8.62275 26.2725 7.82512 25.6255 7.17873C24.9785 6.51049 24.1815 6.1867 23.2326 6.1867C22.2625 6.1867 21.4648 6.51049 20.8184 7.17873C20.1934 7.82512 19.8701 8.62275 19.8701 9.59296C19.8701 10.5631 20.1934 11.3608 20.8184 12.029C21.4648 12.6753 22.2625 12.9985 23.2326 12.9985C24.1815 12.9985 24.9785 12.6753 25.6255 12.029ZM17.3047 9.59296C17.3047 7.97636 17.8867 6.59681 19.0294 5.49725C20.1714 4.39759 21.573 3.83752 23.2326 3.83752C24.8929 3.83752 26.2938 4.39759 27.4365 5.49725C28.5786 6.59681 29.1605 7.97636 29.1605 9.59296C29.1605 11.2094 28.5786 12.5891 27.4365 13.6886C26.2938 14.7882 24.8929 15.3483 23.2326 15.3483C21.573 15.3483 20.1714 14.7882 19.0294 13.6886C17.8867 12.5891 17.3047 11.2094 17.3047 9.59296Z" fill="white"/>
<path fill-rule="evenodd" clip-rule="evenodd" d="M0 32.88V22.0156H2.56488V23.6321C3.08243 22.49 4.26822 21.7999 5.79856 21.7999C6.1004 21.7999 6.35927 21.8218 6.57424 21.8644V24.3654C6.25109 24.3003 5.88479 24.2573 5.49662 24.2573C3.70751 24.2573 2.56488 25.3781 2.56488 27.1677V32.88H0Z" fill="white"/>
<path fill-rule="evenodd" clip-rule="evenodd" d="M15.9128 26.2839C15.9128 25.637 15.6327 25.0769 15.0939 24.6236C14.555 24.1498 13.9299 23.9129 13.1754 23.9129C12.3778 23.9129 11.6664 24.1498 11.0845 24.6024C10.5025 25.055 10.1793 25.6157 10.1143 26.2839H15.9128ZM7.48438 27.4478C7.48438 25.7232 8.02323 24.3436 9.07973 23.2871C10.1574 22.2314 11.5158 21.7137 13.1754 21.7137C14.7488 21.7137 16.0422 22.2314 17.0342 23.2871C18.0469 24.3436 18.5426 25.637 18.5426 27.1891C18.5426 27.5122 18.5214 27.8141 18.5001 28.0942H10.0499C10.1362 29.8189 11.4076 30.9396 13.3261 30.9396C14.4468 30.9396 15.4171 30.5303 16.2578 29.6895L17.81 31.1985C16.581 32.4918 15.0726 33.1389 13.2398 33.1389C11.537 33.1389 10.1362 32.6213 9.07973 31.6079C8.02323 30.5953 7.48438 29.2369 7.48438 27.5342V27.4478Z" fill="white"/>
<path fill-rule="evenodd" clip-rule="evenodd" d="M28.2548 29.8189C28.8798 29.1938 29.1818 28.3962 29.1818 27.4478C29.1818 26.4996 28.8798 25.7019 28.2548 25.0769C27.6515 24.4517 26.897 24.1279 25.97 24.1279C25.0429 24.1279 24.2453 24.4517 23.5989 25.0769C22.9738 25.7019 22.6501 26.4996 22.6501 27.4478C22.6501 28.3962 22.9738 29.1938 23.5989 29.8189C24.2453 30.4439 25.0429 30.7678 25.97 30.7678C26.897 30.7678 27.6515 30.4439 28.2548 29.8189ZM20.2578 32.88V17.855H22.8445V23.5891C23.2108 22.5327 24.5259 21.7788 26.3151 21.7788C27.8453 21.7788 29.1386 22.3176 30.1732 23.4165C31.2297 24.4949 31.7472 25.8314 31.7472 27.4478C31.7472 29.0644 31.2297 30.4009 30.1732 31.5003C29.1386 32.5781 27.8453 33.117 26.3151 33.117C24.5259 33.117 23.2108 32.3624 22.8445 31.3067V32.88H20.2578Z" fill="white"/>
<path fill-rule="evenodd" clip-rule="evenodd" d="M41.3207 29.884C41.9678 29.2157 42.2909 28.4181 42.2909 27.4479C42.2909 26.4778 41.9678 25.6802 41.3207 25.0338C40.6738 24.3656 39.8767 24.0417 38.9279 24.0417C37.9577 24.0417 37.1607 24.3656 36.5137 25.0338C35.8886 25.6802 35.5654 26.4778 35.5654 27.4479C35.5654 28.4181 35.8886 29.2157 36.5137 29.884C37.1607 30.5304 37.9577 30.8535 38.9279 30.8535C39.8767 30.8535 40.6738 30.5304 41.3207 29.884ZM33 27.4479C33 25.8315 33.5819 24.4518 34.7246 23.3523C35.8667 22.2527 37.2682 21.6926 38.9279 21.6926C40.5881 21.6926 41.989 22.2527 43.1317 23.3523C44.2738 24.4518 44.8558 25.8315 44.8558 27.4479C44.8558 29.0645 44.2738 30.444 43.1317 31.5436C41.989 32.6432 40.5881 33.2032 38.9279 33.2032C37.2682 33.2032 35.8667 32.6432 34.7246 31.5436C33.5819 30.444 33 29.0645 33 27.4479Z" fill="white"/>
<path fill-rule="evenodd" clip-rule="evenodd" d="M46.5273 22.0157H49.1353V28.3531C49.1353 29.9915 50.0623 30.7891 51.507 30.7891C52.9509 30.7891 53.878 29.9702 53.878 28.3318V22.0157H56.4865V28.5043C56.4865 30.0133 56.0121 31.1773 55.0638 31.975C54.1148 32.7725 52.9297 33.1601 51.485 33.1601C50.0411 33.1601 48.8552 32.7725 47.9282 31.975C47.0012 31.1773 46.5273 30.0565 46.5273 28.5687V22.0157Z" fill="white"/>
<path fill-rule="evenodd" clip-rule="evenodd" d="M73.8274 30.9829C75.552 30.9829 76.6084 30.2072 76.6084 28.8276V27.6205C76.5003 27.7498 76.3065 27.8574 76.0696 27.9436C75.5738 28.1162 75.2501 28.1593 74.2155 28.2668C72.7065 28.4394 71.952 28.9138 71.952 29.6682C71.952 30.509 72.6421 30.9829 73.8274 30.9829ZM74.1292 26.2621C75.9615 26.0896 76.6084 25.8527 76.6084 25.0119C76.6084 24.3436 76.0046 23.8267 74.7976 23.8267C73.6335 23.8267 72.6634 24.3006 71.8877 25.2494L70.2923 23.8911C71.3488 22.404 72.8359 21.6707 74.7544 21.6707C77.4491 21.6707 79.1301 22.9641 79.1301 25.1844V29.9915C79.1301 30.746 79.4108 30.8323 80.0359 30.8323H80.1002V32.8369C79.8415 32.9876 79.432 33.0739 78.8932 33.0739C78.3112 33.0739 77.8587 32.9014 77.5136 32.5569C77.3629 32.4057 77.2336 32.1687 77.1254 31.8455C76.3709 32.7294 75.1426 33.1821 73.4398 33.1821C71.0469 33.1821 69.4297 31.8668 69.4297 29.884C69.4297 27.6636 70.9174 26.5428 74.1292 26.2621Z" fill="white"/>
<path fill-rule="evenodd" clip-rule="evenodd" d="M82.7144 29.5602C83.2101 30.3365 84.2665 30.9185 85.5811 30.9185C86.9395 30.9185 87.5215 30.4009 87.5215 29.7326C87.5215 29.3663 87.2626 29.0645 86.8964 28.8706C86.6594 28.72 86.2069 28.5687 85.883 28.4612C85.5598 28.3531 84.9129 28.1593 84.5466 28.0086C82.8006 27.3829 81.8736 26.4996 81.8736 24.9475C81.8736 23.9341 82.2399 23.1585 82.9732 22.5758C83.7277 21.9939 84.6328 21.6925 85.7105 21.6925C87.2414 21.6925 88.4053 22.2314 89.2243 23.2872L87.7803 24.8181C87.3058 24.2142 86.5944 23.9129 85.6675 23.9129C84.8704 23.9129 84.3528 24.3005 84.3528 24.8825C84.3528 25.2494 84.5466 25.4432 84.8485 25.6369C85.0211 25.7451 85.4523 25.9177 85.7325 26.0251C86.0555 26.1114 86.6594 26.327 87.0901 26.4777C89.0949 27.1891 90.0006 28.1593 90.0006 29.7114C90.0006 31.7161 88.4917 33.1601 85.5386 33.1601C83.3614 33.1601 81.7441 32.3194 81.0547 30.9616L82.7144 29.5602Z" fill="white"/>
<path fill-rule="evenodd" clip-rule="evenodd" d="M64.0528 30.8317C63.0989 30.8317 62.3052 30.5116 61.6587 29.8652C61.0315 29.2187 60.7114 28.3993 60.7114 27.4263C60.7114 26.4533 61.0315 25.634 61.6587 24.9874C62.3052 24.3409 63.0989 24.0208 64.0528 24.0208C65.1281 24.0208 66.0562 24.4114 66.8117 25.2051L68.4055 23.5472C67.2404 22.2926 65.7938 21.6718 64.0528 21.6718C62.3884 21.6718 60.9867 22.2286 59.8472 23.3295C58.7015 24.4306 58.1446 25.7875 58.1446 27.4263C58.1446 28.5913 58.4261 29.6281 59.0087 30.5243L56.6914 32.8416L56.7059 32.856H59.9737L60.6409 32.1887C61.6202 32.8544 62.7597 33.1809 64.0528 33.1809C65.7938 33.1809 67.2404 32.5599 68.4055 31.3054L66.8117 29.6474C66.0562 30.4412 65.1281 30.8317 64.0528 30.8317Z" fill="white"/>
</svg>
