<svg width="31" height="27" viewBox="0 0 31 27" fill="none" xmlns="http://www.w3.org/2000/svg">
<path d="M17.8881 8.04397H13.1141C12.8041 7.05197 11.9051 6.33897 10.8201 6.33897C9.48709 6.33897 8.40209 7.42397 8.40209 8.75697C8.40209 10.09 9.48709 11.175 10.8201 11.175C11.9051 11.175 12.8041 10.462 13.1141 9.46997H17.9191C17.9501 9.59397 18.0121 9.71797 18.0741 9.84197L11.9051 16.011C11.5641 15.825 11.1921 15.732 10.7891 15.732C9.45609 15.732 8.37109 16.817 8.37109 18.15C8.37109 19.483 9.45609 20.568 10.7891 20.568C11.8741 20.568 12.7731 19.855 13.0831 18.863H19.5311L19.0661 19.39C18.7871 19.669 18.7871 20.134 19.0661 20.444C19.2211 20.599 19.4071 20.661 19.5931 20.661C19.7791 20.661 19.9651 20.599 20.1201 20.444L21.8561 18.708C21.9801 18.584 22.0731 18.367 22.0731 18.181C22.0731 17.995 21.9801 17.809 21.8561 17.654L20.1201 15.918C19.8411 15.639 19.3761 15.639 19.0661 15.918C18.7561 16.197 18.7871 16.662 19.0661 16.972L19.5311 17.437H13.1141C13.0831 17.313 13.0211 17.189 12.9591 17.065L19.0971 10.927C19.4381 11.113 19.8101 11.206 20.2131 11.206C21.5461 11.206 22.6311 10.121 22.6311 8.78797C22.6311 7.45497 21.5461 6.36997 20.2131 6.36997C19.1281 6.33897 18.1981 7.05197 17.8881 8.04397Z" fill="#808080"/>
<path d="M29.4521 2.24699L20.2761 0.293987C20.1521 0.262987 19.9971 0.262987 19.8731 0.293987L10.9141 2.24699L1.95509 0.355987C1.67609 0.293987 1.36609 0.355987 1.11809 0.541987C0.901094 0.727987 0.746094 1.00699 0.746094 1.31699V23.792C0.746094 24.257 1.08709 24.66 1.52109 24.753L10.6661 26.675C10.7281 26.675 10.7901 26.706 10.8831 26.706C10.9451 26.706 11.0381 26.706 11.1001 26.675L20.0591 24.722L29.0181 26.613C29.2971 26.675 29.6071 26.613 29.8551 26.427C30.0721 26.241 30.2271 25.962 30.2271 25.652V3.20799C30.2271 2.74299 29.8861 2.33999 29.4521 2.24699ZM28.2431 24.443L20.2761 22.769C20.1521 22.738 19.9971 22.738 19.8731 22.769L10.9141 24.722L2.76109 22.986V2.52599L10.7281 4.19999C10.8521 4.23099 11.0071 4.23099 11.1311 4.19999L20.0901 2.24699L28.2741 3.98299V24.443H28.2431Z" fill="#808080"/>
</svg>
