<svg fill="#fabf72" id="Layer_1" enable-background="new 0 0 510 510" height="25" viewBox="0 0 510 510" width="25" xmlns="http://www.w3.org/2000/svg"><path d="m0 0v510h510c0-15.857 0-498.179 0-510-13.014 0-494.613 0-510 0zm30 30h210v90h15.951c15.959 0 31.331-3.878 44.453-11.215 4.747-2.653 10.6-4.108 16.616-3.72h.001c15.653 1.012 27.943 14.129 27.979 29.863.357 22.461-24.734 37.391-44.294 26.453-13.684-7.445-28.697-11.381-43.416-11.381h-17.29v90h-58.524c1.282-5.567 3.385-11.09 6.257-16.369 21.7-38.948-7.398-89.122-52.876-88.631-32.773.077-60.082 26.85-59.855 60.396.068 10.123 2.663 20.013 7.598 28.84 2.689 4.809 4.674 10.128 5.907 15.764h-58.507zm210 450h-210v-210h90v-15.951c0-15.959-3.878-31.331-11.215-44.453-2.811-5.028-4.097-10.773-3.72-16.616 1.013-15.675 14.166-27.98 29.934-27.98 22.515-.278 37.272 24.819 26.382 44.294-7.445 13.684-11.381 28.697-11.381 43.416v17.29h90v58.524c-5.567-1.282-11.09-3.385-16.369-6.257-39.335-21.789-89.132 7.686-88.631 52.877.073 31.467 24.692 57.703 56.045 59.729 11.622.749 23.104-1.832 33.189-7.472 4.81-2.689 10.128-4.674 15.765-5.907v58.506zm240 0h-210v-90c-12.859.189-19.73-.569-30.69 1.124-10.608 1.638-20.693 5.047-29.715 10.091-5.027 2.81-10.773 4.096-16.615 3.72-15.653-1.011-27.943-14.128-27.98-29.862-.357-22.462 24.734-37.391 44.294-26.454 13.684 7.446 28.697 11.381 43.416 11.381h17.29v-90h58.524c-1.282 5.567-3.385 11.09-6.257 16.369-7.65 14.063-9.341 30.797-4.687 46.136 7.356 24.244 29.963 42.495 57.564 42.495 45.208.285 74.658-50.079 52.256-89.235-2.688-4.809-4.673-10.128-5.906-15.765h58.506zm0-240h-90v15.952c0 15.357 3.606 30.844 11.215 44.454 2.878 5.147 4.088 10.914 3.72 16.614-1.011 15.653-14.128 27.944-29.861 27.981-22.358.351-37.435-24.655-26.454-44.294 7.445-13.685 11.38-28.698 11.38-43.417v-17.29h-90v-58.524c5.567 1.282 11.09 3.385 16.369 6.257 39.383 21.818 89.149-7.754 88.631-52.874-.073-31.698-25.147-58.416-57.385-59.795-11.32-.485-22.256 2.171-31.851 7.535-4.819 2.695-10.14 4.677-15.764 5.907v-58.506h210z"/></svg>