<svg width="17" height="13" viewBox="0 0 17 13" fill="none" xmlns="http://www.w3.org/2000/svg">
<path d="M16.656 0.727998C16.208 2.584 15.76 4.6 15.312 6.776C14.864 8.92 14.512 10.824 14.256 12.488H9.696L9.36 11.96C9.808 10.264 10.416 8.408 11.184 6.392C11.952 4.344 12.736 2.456 13.536 0.727998H16.656ZM7.776 0.727998C7.328 2.584 6.88 4.6 6.432 6.776C5.984 8.92 5.632 10.824 5.376 12.488H0.864L0.576 11.96C1.024 10.264 1.616 8.408 2.352 6.392C3.12 4.344 3.904 2.456 4.704 0.727998H7.776Z" fill="#808080"/>
</svg>
