<svg width="17" height="13" viewBox="0 0 17 13" fill="none" xmlns="http://www.w3.org/2000/svg">
<path d="M16.656 1.256C16.24 2.952 15.632 4.824 14.832 6.872C14.064 8.92 13.296 10.792 12.528 12.488H9.36C9.68 11.272 9.984 9.976 10.272 8.6C10.592 7.192 10.88 5.816 11.136 4.472C11.424 3.096 11.648 1.848 11.808 0.727998H16.32L16.656 1.256ZM7.776 1.256C7.36 2.952 6.752 4.824 5.952 6.872C5.184 8.92 4.416 10.792 3.648 12.488H0.576C0.896 11.272 1.2 9.976 1.488 8.6C1.776 7.192 2.048 5.816 2.304 4.472C2.56 3.096 2.768 1.848 2.928 0.727998H7.44L7.776 1.256Z" fill="#808080"/>
</svg>
