<svg id="_x33_0" enable-background="new 0 0 64 64" height="30" fill="lightgray" viewBox="0 0 64 64" width="30" xmlns="http://www.w3.org/2000/svg"><g><g><path d="m58 62h-18v-7c0-.552.448-1 1-1h16c.552 0 1 .448 1 1z" fill="#f0bc5e"/></g><g><path d="m24 62h-18v-7c0-.552.448-1 1-1h16c.552 0 1 .448 1 1z" fill="#f0bc5e"/></g><g><path d="m61 19c.29 0 .554.026.785.077l1.215.267v-9.344c0-1.654-1.346-3-3-3h-7c0-3.309-2.691-6-6-6s-6 2.691-6 6h-8.9-1.1-7.9c0-3.309-2.691-6-6-6s-6 2.691-6 6h-7c-1.654 0-3 1.346-3 3v9.344l1.215-.267c.231-.051.496-.077.785-.077 2.206 0 4 1.794 4 4s-1.794 4-4 4c-.288 0-.552-.026-.787-.077l-1.213-.265v7.748c-.059.189-.1.386-.1.594h.1v7.929c0 4.151 1.438 8.144 4.038 11.356-.086.223-.138.462-.138.715v8h20v-8c0-.612-.282-1.153-.716-1.521 1.795-4.5 2.716-9.234 2.716-14.095v-.384h10v.384c0 4.861.921 9.595 2.716 14.095-.434.368-.716.909-.716 1.521v8h20v-8c0-.22-.044-.428-.11-.626 2.646-3.227 4.11-7.256 4.11-11.445v-16.271l-1.213.265c-.235.051-.499.077-.787.077-2.206 0-4-1.794-4-4s1.794-4 4-4zm-38 42h-16v-6l16-.001zm2-21.616c0 4.699-.907 9.274-2.677 13.616h-15.323c-.105 0-.206.015-.307.031-2.313-2.857-3.593-6.409-3.593-10.102v-7.919c1.056.053 1.9.92 1.9 1.986v5.01c0 1.651 1.35 2.994 3.055 2.994.785 0 1.524-.306 2.081-.86.558-.556.865-1.295.865-2.081l-.001-12.059c0-.551.449-1 1-1s1 .449 1 1v11h2v-13c0-.551.449-1 1-1s1 .449 1 1v13h2v-11c0-.551.449-1 1-1s1 .449 1 1v11h2v-7c0-.551.449-1 1-1s1 .449 1 1zm-16 2.676c0 .25-.098.486-.276.664-.179.178-.417.276-.714.276-.567 0-1.01-.437-1.01-.994v-3.006h2zm15-11.06c-.352 0-.686.072-1 .184v-1.184c0-1.654-1.346-3-3-3-.395 0-.77.081-1.116.22-.345-1.275-1.501-2.22-2.884-2.22s-2.538.945-2.884 2.22c-.346-.139-.721-.22-1.116-.22-1.654 0-3 1.346-3 3v7h-2v-.004c0-2.169-1.742-3.931-3.9-3.986v-4.01c3.309 0 6-2.691 6-6s-2.691-6-6-6v-7c0-.551.449-1 1-1h9.344l-.267-1.215c-.051-.231-.077-.495-.077-.785 0-2.206 1.794-4 4-4s4 1.794 4 4c0 .288-.026.552-.077.787l-.265 1.213h10.242v8c-3.309 0-6 2.691-6 6s2.691 6 6 6v8h-4v-3c0-1.654-1.346-3-3-3zm33 30h-16v-6h16zm4-18.071c0 3.697-1.283 7.253-3.601 10.112-.129-.027-.262-.041-.399-.041h-15.323c-1.77-4.341-2.677-8.916-2.677-13.616v-.384h2v4h13.008c.111.198.231.39.359.578-.863.92-1.367 2.145-1.367 3.422h2c0-.939.449-1.837 1.2-2.4l1.2-.899c1.002-.751 1.6-1.951 1.6-3.208v-3.489c0-1.104.897-2.003 2-2.005zm-4.8-.829-.273.205c-.596-.932-.927-2.013-.927-3.134v-.171h2v1.492c0 .631-.299 1.232-.8 1.608zm-2.976-1.1h-2.224v-2h2v.171c0 .622.081 1.234.224 1.829zm-4.224 0h-2v-2h2zm-4 0h-2v-2h2zm16-12v4c-2.204 0-3.998 1.794-4 4h-24v-10.342l-1.213.265c-.235.051-.499.077-.787.077-2.206 0-4-1.794-4-4s1.794-4 4-4c.29 0 .554.026.785.077l1.215.267v-10.344h10.342l-.265-1.213c-.051-.235-.077-.499-.077-.787 0-2.206 1.794-4 4-4s4 1.794 4 4c0 .288-.026.552-.077.787l-.265 1.213h9.342c.551 0 1 .449 1 1v7c-3.309 0-6 2.691-6 6s2.691 6 6 6z"/><path d="m43.059 44.504-.504-.336-1.109 1.664.504.336c1.283.856 2.05 2.289 2.05 3.832h2c0-2.214-1.1-4.269-2.941-5.496z"/></g></g></svg>