<svg id="Capa_1" enable-background="new 0 0 512 512" height="30" viewBox="0 0 512 512" width="30" fill="white" xmlns="http://www.w3.org/2000/svg"><g><path d="m21.943 414.437h98.982l41.469-58.59-16.44-23.214c-2.381-3.374-1.587-8.022 1.786-10.403s8.021-1.587 10.402 1.786l13.407 18.935 76.93-108.676v-54.65h-76.93c-5.669 0-9.212-6.009-6.689-10.913l10.97-25.71-11.169-26.191c-2.239-5.272 1.814-10.431 7.2-10.431h84.129c4.139 0 7.512 3.373 7.512 7.512v120.383l32.767 46.316c2.381 3.345 1.587 8.022-1.786 10.375-3.373 2.38-8.022 1.587-10.403-1.786l-28.09-39.655c-53.516 75.569-107.004 151.11-160.52 226.679h321.041c-37.586-53.091-75.201-106.182-112.787-159.273-2.381-3.373-1.587-8.022 1.786-10.403s8.022-1.587 10.403 1.786l24.519 34.638 52.552-74.209c3.033-4.28 9.354-4.139 12.246.142l34.581 48.783c4.734-10.715 8.56-21.911 11.367-33.476 3.685-15.193 5.641-31.124 5.641-47.592 0-24.349-4.309-47.648-12.245-69.22-8.22-22.393-20.324-42.914-35.489-60.744-2.665-3.175-2.268-7.88.879-10.545 3.175-2.693 7.88-2.296 10.544.879 16.299 19.162 29.309 41.214 38.125 65.28 8.532 23.186 13.181 48.244 13.181 74.35 0 17.546-2.126 34.667-6.123 51.107-3.742 15.392-9.127 30.131-15.93 44.021l60.83 85.915c3.657 5.187-.255 11.792-6.52 11.792h-102.384l35.375 49.973c3.628 5.159-.227 11.82-6.406 11.82h-349.642c-6.491 0-9.807-7.681-5.64-12.443l34.921-49.349h-102.78c-6.52 0-9.836-7.654-5.669-12.415l60.404-85.292c-6.832-13.889-12.217-28.629-15.958-44.021-3.997-16.44-6.123-33.561-6.123-51.107 0-59.582 24.151-113.552 63.211-152.612s93.029-63.21 152.612-63.21c26.106 0 51.164 4.648 74.378 13.18 24.065 8.844 46.09 21.826 65.28 38.124 3.147 2.665 3.543 7.398.878 10.544-2.693 3.146-7.398 3.544-10.544.879-17.858-15.164-38.38-27.269-60.773-35.488-21.542-7.909-44.871-12.245-69.22-12.245-55.444 0-105.672 22.478-142.011 58.816-36.339 36.339-58.817 86.567-58.817 142.011 0 16.469 1.955 32.399 5.641 47.592 2.835 11.565 6.633 22.761 11.395 33.476l34.638-48.924c3.033-4.28 9.354-4.139 12.245.142l19.417 27.41c2.381 3.373 1.587 8.022-1.786 10.403-3.345 2.381-8.021 1.559-10.403-1.786l-13.379-18.935c-30.329 42.828-60.659 85.629-90.988 128.459zm226.537-249.809v-43.227h-65.592l7.965 18.68c.765 1.814.822 3.912 0 5.868l-7.965 18.68h65.592zm101.108 191.219 41.47 58.59h98.982c-30.33-42.83-60.659-85.631-90.961-128.462z"/></g></svg>