<svg fill="#fabf72" id="Layer_1" enable-background="new 0 0 512.001 512.001" height="30" viewBox="0 0 512.001 512.001" width="30" xmlns="http://www.w3.org/2000/svg"><path d="m256.002 511.751c-227.238-.228-341.538-276.195-181.018-437.02 95.289-99.301 266.749-99.317 362.037.004 160.519 160.839 46.205 436.801-181.019 437.016zm0-472c-119.103 0-216 96.897-216 216 11.865 286.553 420.178 286.47 432-.002 0-119.1-96.898-215.998-216-215.998zm0 236c11.046 0 20-8.954 20-20-1.053-26.53-38.951-26.522-40 0 0 11.046 8.954 20 20 20zm-112.998 113.001c-5.224 0-10.335-2.048-14.145-5.858-5.303-5.303-7.193-13.127-4.897-20.266l55-171c1.973-6.135 6.781-10.943 12.916-12.916l171-55c7.138-2.296 14.962-.405 20.266 4.897 5.303 5.303 7.193 13.126 4.897 20.266l-55 171c-.142.44-.298.875-.47 1.304-3.492 8.73-10.834 11.093-14.362 12.229l-169.084 54.383c-2.01.646-4.074.961-6.121.961zm70.894-175.105-39.926 124.135c39.863-12.82 100.652-32.371 124.133-39.925l39.927-124.136z"/></svg>