<svg width="57" height="14" viewBox="0 0 57 14" fill="none" xmlns="http://www.w3.org/2000/svg">
<path d="M7.47 13.126C6.522 13.126 5.646 12.964 4.842 12.64C4.038 12.316 3.336 11.86 2.736 11.272C2.148 10.684 1.686 9.994 1.35 9.202C1.026 8.41 0.864 7.546 0.864 6.61C0.864 5.686 1.026 4.828 1.35 4.036C1.686 3.244 2.148 2.56 2.736 1.984C3.336 1.396 4.038 0.94 4.842 0.616C5.646 0.291999 6.522 0.129999 7.47 0.129999C8.418 0.129999 9.294 0.291999 10.098 0.616C10.914 0.94 11.622 1.396 12.222 1.984C12.822 2.56 13.284 3.244 13.608 4.036C13.944 4.828 14.112 5.686 14.112 6.61C14.112 7.546 13.944 8.41 13.608 9.202C13.284 9.994 12.822 10.684 12.222 11.272C11.622 11.86 10.914 12.316 10.098 12.64C9.294 12.964 8.418 13.126 7.47 13.126ZM7.47 12.46C8.586 12.46 9.588 12.214 10.476 11.722C11.376 11.23 12.09 10.552 12.618 9.688C13.146 8.812 13.41 7.798 13.41 6.646C13.41 5.818 13.26 5.05 12.96 4.342C12.672 3.622 12.258 2.998 11.718 2.47C11.178 1.942 10.548 1.534 9.828 1.246C9.108 0.945999 8.322 0.795999 7.47 0.795999C6.63 0.795999 5.85 0.945999 5.13 1.246C4.41 1.534 3.78 1.942 3.24 2.47C2.712 2.998 2.298 3.616 1.998 4.324C1.71 5.032 1.566 5.8 1.566 6.628C1.566 7.456 1.71 8.224 1.998 8.932C2.298 9.64 2.712 10.258 3.24 10.786C3.78 11.314 4.404 11.728 5.112 12.028C5.832 12.316 6.618 12.46 7.47 12.46ZM7.614 10.786C6.882 10.786 6.192 10.618 5.544 10.282C4.908 9.934 4.392 9.448 3.996 8.824C3.6 8.188 3.402 7.45 3.402 6.61C3.402 6.106 3.486 5.608 3.654 5.116C3.822 4.612 4.074 4.156 4.41 3.748C4.746 3.34 5.172 3.016 5.688 2.776C6.204 2.524 6.81 2.398 7.506 2.398C8.286 2.398 8.988 2.572 9.612 2.92C10.236 3.256 10.686 3.748 10.962 4.396L9.774 4.774C9.618 4.414 9.402 4.144 9.126 3.964C8.862 3.772 8.58 3.646 8.28 3.586C7.992 3.514 7.734 3.478 7.506 3.478C6.87 3.478 6.342 3.634 5.922 3.946C5.502 4.258 5.184 4.654 4.968 5.134C4.764 5.614 4.662 6.106 4.662 6.61C4.662 7.27 4.812 7.834 5.112 8.302C5.412 8.758 5.784 9.112 6.228 9.364C6.672 9.604 7.11 9.724 7.542 9.724C7.986 9.724 8.442 9.604 8.91 9.364C9.378 9.112 9.708 8.776 9.9 8.356L11.088 8.698C10.968 8.998 10.752 9.31 10.44 9.634C10.128 9.946 9.726 10.216 9.234 10.444C8.754 10.672 8.214 10.786 7.614 10.786ZM20.3565 13C20.3565 12.46 20.4225 11.914 20.5545 11.362C20.6985 10.798 20.9805 10.258 21.4005 9.742C21.8325 9.214 22.4805 8.728 23.3445 8.284C23.6925 8.104 24.0525 7.93 24.4245 7.762C24.7965 7.582 25.1445 7.39 25.4685 7.186C25.7925 6.97 26.0565 6.73 26.2605 6.466C26.4645 6.19 26.5665 5.866 26.5665 5.494C26.5665 5.194 26.4765 4.906 26.2965 4.63C26.1165 4.342 25.8525 4.108 25.5045 3.928C25.1565 3.736 24.7185 3.64 24.1905 3.64C23.6865 3.64 23.2365 3.73 22.8405 3.91C22.4565 4.09 22.1325 4.3 21.8685 4.54C21.6165 4.768 21.4245 4.954 21.2925 5.098L20.5185 4.252C20.5905 4.18 20.7285 4.054 20.9325 3.874C21.1365 3.682 21.4005 3.484 21.7245 3.28C22.0605 3.076 22.4505 2.902 22.8945 2.758C23.3385 2.614 23.8365 2.542 24.3885 2.542C25.1205 2.542 25.7445 2.674 26.2605 2.938C26.7885 3.202 27.1905 3.55 27.4665 3.982C27.7425 4.402 27.8805 4.864 27.8805 5.368C27.8805 5.86 27.7725 6.286 27.5565 6.646C27.3525 6.994 27.0825 7.3 26.7465 7.564C26.4225 7.816 26.0805 8.038 25.7205 8.23C25.3725 8.41 25.0545 8.566 24.7665 8.698C24.0105 9.058 23.4165 9.418 22.9845 9.778C22.5525 10.126 22.2345 10.474 22.0305 10.822C21.8385 11.17 21.7065 11.524 21.6345 11.884H28.0785V13H20.3565ZM38.9772 7.726C38.9772 8.782 38.7792 9.724 38.3832 10.552C37.9872 11.368 37.4472 12.01 36.7632 12.478C36.0912 12.946 35.3232 13.18 34.4592 13.18C33.5952 13.18 32.8212 12.946 32.1372 12.478C31.4532 12.01 30.9132 11.368 30.5172 10.552C30.1332 9.724 29.9412 8.782 29.9412 7.726C29.9412 6.67 30.1332 5.734 30.5172 4.918C30.9132 4.09 31.4532 3.442 32.1372 2.974C32.8212 2.494 33.5952 2.254 34.4592 2.254C35.3232 2.254 36.0912 2.494 36.7632 2.974C37.4472 3.442 37.9872 4.09 38.3832 4.918C38.7792 5.734 38.9772 6.67 38.9772 7.726ZM37.7352 7.726C37.7352 6.874 37.5972 6.124 37.3212 5.476C37.0452 4.816 36.6612 4.306 36.1692 3.946C35.6772 3.586 35.1072 3.406 34.4592 3.406C33.8112 3.406 33.2412 3.586 32.7492 3.946C32.2572 4.306 31.8672 4.816 31.5792 5.476C31.3032 6.124 31.1652 6.874 31.1652 7.726C31.1652 8.578 31.3032 9.328 31.5792 9.976C31.8672 10.624 32.2572 11.128 32.7492 11.488C33.2412 11.848 33.8112 12.028 34.4592 12.028C35.1072 12.028 35.6772 11.848 36.1692 11.488C36.6612 11.128 37.0452 10.624 37.3212 9.976C37.5972 9.328 37.7352 8.578 37.7352 7.726ZM40.7647 13C40.7647 12.46 40.8307 11.914 40.9627 11.362C41.1067 10.798 41.3887 10.258 41.8087 9.742C42.2407 9.214 42.8887 8.728 43.7527 8.284C44.1007 8.104 44.4607 7.93 44.8327 7.762C45.2047 7.582 45.5527 7.39 45.8767 7.186C46.2007 6.97 46.4647 6.73 46.6687 6.466C46.8727 6.19 46.9747 5.866 46.9747 5.494C46.9747 5.194 46.8847 4.906 46.7047 4.63C46.5247 4.342 46.2607 4.108 45.9127 3.928C45.5647 3.736 45.1267 3.64 44.5987 3.64C44.0947 3.64 43.6447 3.73 43.2487 3.91C42.8647 4.09 42.5407 4.3 42.2767 4.54C42.0247 4.768 41.8327 4.954 41.7007 5.098L40.9267 4.252C40.9987 4.18 41.1367 4.054 41.3407 3.874C41.5447 3.682 41.8087 3.484 42.1327 3.28C42.4687 3.076 42.8587 2.902 43.3027 2.758C43.7467 2.614 44.2447 2.542 44.7967 2.542C45.5287 2.542 46.1527 2.674 46.6687 2.938C47.1967 3.202 47.5987 3.55 47.8747 3.982C48.1507 4.402 48.2887 4.864 48.2887 5.368C48.2887 5.86 48.1807 6.286 47.9647 6.646C47.7607 6.994 47.4907 7.3 47.1547 7.564C46.8307 7.816 46.4887 8.038 46.1287 8.23C45.7807 8.41 45.4627 8.566 45.1747 8.698C44.4187 9.058 43.8247 9.418 43.3927 9.778C42.9607 10.126 42.6427 10.474 42.4387 10.822C42.2467 11.17 42.1147 11.524 42.0427 11.884H48.4867V13H40.7647ZM56.6674 11.884V13H50.5654V11.884H53.1214V4.18C52.9894 4.36 52.7494 4.564 52.4014 4.792C52.0534 5.02 51.6754 5.218 51.2674 5.386C50.8594 5.542 50.4994 5.62 50.1874 5.62V4.432C50.4634 4.432 50.7634 4.354 51.0874 4.198C51.4234 4.042 51.7354 3.862 52.0234 3.658C52.3234 3.442 52.5754 3.244 52.7794 3.064C52.9834 2.884 53.0974 2.77 53.1214 2.722H54.3814V11.884H56.6674Z" fill="white"/>
</svg>
