<svg height="512pt" viewBox="-10 0 511 512" width="512pt" xmlns="http://www.w3.org/2000/svg"><path d="m431.5 0h-331c-33.085938 0-60 26.914062-60 60v37h-40v40h40v100h-40v40h40v100h-40v40h40v35c0 33.085938 26.914062 60 60 60h331c33.085938 0 60-26.914062 60-60v-392c0-33.085938-26.914062-60-60-60zm20 452c0 11.027344-8.972656 20-20 20h-331c-11.027344 0-20-8.972656-20-20v-35h9v-.050781c.332031.015625.660156.050781 1 .050781 11.046875 0 20-8.953125 20-20s-8.953125-20-20-20c-.339844 0-.667969.035156-1 .050781v-.050781h-9v-100h9v-.050781c.332031.015625.660156.050781 1 .050781 11.046875 0 20-8.953125 20-20s-8.953125-20-20-20c-.339844 0-.667969.035156-1 .050781v-.050781h-9v-100h9v-.050781c.332031.015625.660156.050781 1 .050781 11.046875 0 20-8.953125 20-20s-8.953125-20-20-20c-.339844 0-.667969.035156-1 .050781v-.050781h-9v-37c0-11.027344 8.972656-20 20-20h331c11.027344 0 20 8.972656 20 20zm-171.9375-334.996094c-37.460938.246094-72.570312 15.09375-98.859375 41.808594-26.28125 26.710938-40.558594 62.066406-40.195313 99.558594.355469 37.253906 15.066407 72.132812 41.421876 98.214844 26.335937 26.0625 61.335937 40.417968 98.570312 40.414062h.066406c27.28125-.011719 53.722656-7.882812 76.472656-22.757812l-21.894531-33.476563c-16.226562 10.613281-35.105469 16.226563-54.597656 16.234375-.019531 0-.03125 0-.046875 0-54.617188 0-99.472656-44.410156-99.996094-99.015625-.257812-26.78125 9.9375-52.039063 28.710938-71.117187 18.777344-19.082032 43.851562-29.6875 70.609375-29.863282 26.4375-.222656 51.53125 10.167969 70.609375 29.117188 19.386718 19.265625 30.0625 44.785156 30.0625 71.871094v1.660156c0 12.875-10.394532 23.347656-23.171875 23.347656-12.800781 0-22.828125-10.257812-22.828125-23.347656v-70.652344h-40v1.589844c-5.367188-1.683594-11.078125-2.589844-17-2.589844-31.429688 0-57 25.570312-57 57v22c0 31.429688 25.570312 57 57 57 15.289062 0 29.175781-6.058594 39.425781-15.890625 10.933594 9.28125 25.027344 14.890625 40.40625 14.890625 34.832031 0 63.171875-28.417969 63.171875-63.347656v-1.660156c0-37.816407-14.871094-73.417969-41.875-100.246094-26.691406-26.515625-61.828125-40.988282-99.0625-40.742188zm14.9375 149.996094c0 9.375-7.625 17-17 17s-17-7.625-17-17v-22c0-9.375 7.625-17 17-17s17 7.625 17 17zm0 0"/></svg>