<?xml version="1.0" encoding="iso-8859-1"?>
<!-- Generator: Adobe Illustrator 19.0.0, SVG Export Plug-In . SVG Version: 6.00 Build 0)  -->
<svg version="1.1" id="Capa_1" xmlns="http://www.w3.org/2000/svg" xmlns:xlink="http://www.w3.org/1999/xlink" x="0px" y="0px"
	 viewBox="0 0 511.999 511.999" style="enable-background:new 0 0 511.999 511.999;" xml:space="preserve">
<g>
	<g>
		<g>
			<rect x="192.001" y="163.997" width="39.999" height="39.999"/>
			<rect x="351.997" y="163.997" width="39.999" height="39.999"/>
			<rect x="271.999" y="163.997" width="39.999" height="39.999"/>
			<path d="M433.199,331.742c51.628-31.21,78.794-82.404,78.794-149.035c0-31.141-5.972-59.146-17.749-83.237
				c-11.247-23.004-27.771-42.489-49.116-57.91C407.498,14.372,354.547,0,291.999,0s-115.5,14.372-153.13,41.558
				C117.523,56.979,101,76.464,89.753,99.468c-11.777,24.091-17.748,52.096-17.748,83.237c0,8.558,0.468,16.869,1.367,24.933
				c-21.321,11.147-38.315,26.171-50.606,44.767c-15.102,22.85-22.759,50.647-22.759,82.62c0,53.654,21.458,95.156,62.283,120.996
				c-4.898,15.28-10.401,24.243-10.876,25.001l-20.976,30.965h37.601l0.062,0.001c0.393,0.007,0.82,0.011,1.278,0.011
				c11.87,0,44.922-2.624,72.996-29.124c11.554,1.419,23.964,2.113,37.628,2.113c48.162,0,89.625-10.544,119.904-30.49
				c28.634-18.862,47.564-46.152,55.633-79.796c32.716,23.673,67.201,25.288,75.906,25.288c0.132,0,0.26,0,0.381-0.001l36.202,0.065
				l-19.222-30.631C448.703,369.258,440.138,355.206,433.199,331.742z M277.902,421.097c-23.729,15.632-57.582,23.894-97.9,23.894
				c-15.691,0-29.294-1.015-41.589-3.103l-11.135-1.891l-7.369,8.559c-5.663,6.578-11.89,11.317-18.008,14.731
				c1.157-3.983,2.26-8.24,3.261-12.761l3.394-15.32l-14.073-6.941c-36.148-17.832-54.478-49.202-54.478-93.238
				c0-38.905,14.295-67.893,42.536-86.434c2.099,5.967,4.496,11.742,7.218,17.299c11.249,22.965,27.782,42.404,49.14,57.772
				c37.57,27.035,90.51,41.326,153.099,41.326c8.78,0,17.051-0.215,24.897-0.639C311.327,388.644,298.261,407.685,277.902,421.097z
				 M401.109,303.741l-14.072,6.941l3.393,15.32c2.216,10.002,4.851,19.04,7.559,26.974c-11.27-4.649-23.693-12.352-34.664-25.092
				l-7.369-8.56l-11.135,1.891c-14.971,2.542-32.25,3.778-52.823,3.778c-67.222,0-179.995-18.485-179.995-142.285
				c0-124.168,112.773-142.708,179.995-142.708s179.995,18.541,179.995,142.708C471.994,239.817,448.144,280.538,401.109,303.741z"
				/>
		</g>
	</g>
</g>
<g>
</g>
<g>
</g>
<g>
</g>
<g>
</g>
<g>
</g>
<g>
</g>
<g>
</g>
<g>
</g>
<g>
</g>
<g>
</g>
<g>
</g>
<g>
</g>
<g>
</g>
<g>
</g>
<g>
</g>
</svg>
