<svg height="682.66669pt" viewBox="-21 -21 682.66669 682.66669" width="682.66669pt" xmlns="http://www.w3.org/2000/svg"><path d="m546.273438 93.726562c-60.4375-60.441406-140.800782-93.726562-226.273438-93.726562s-165.835938 33.285156-226.273438 93.726562c-60.441406 60.4375-93.726562 140.800782-93.726562 226.273438s33.285156 165.835938 93.726562 226.273438c60.4375 60.441406 140.800782 93.726562 226.273438 93.726562s165.835938-33.285156 226.273438-93.726562c60.441406-60.4375 93.726562-140.800782 93.726562-226.273438s-33.285156-165.835938-93.726562-226.273438zm-226.273438 496.273438c-148.875 0-270-121.125-270-270s121.125-270 270-270 270 121.125 270 270-121.125 270-270 270zm-139.804688-248.125c.234376 1.851562 5.929688 45.921875 23.964844 90.609375 33.375 82.664063 81.417969 100.015625 115.839844 100.015625s82.464844-17.351562 115.839844-100.015625c18.035156-44.6875 23.730468-88.757813 23.964844-90.609375l3.539062-28.125h-286.6875zm224.691407 21.875c-3.308594 14.433594-8.371094 32.742188-15.730469 50.804688-18.375 45.085937-41.640625 67.945312-69.15625 67.945312s-50.78125-22.859375-69.15625-67.945312c-7.359375-18.0625-12.421875-36.371094-15.730469-50.804688zm-233.789063-107.125-32.195312-38.25c24.609375-20.71875 50.253906-31.085938 76.324218-30.875 25.445313.230469 50.554688 10.617188 74.621094 30.875l-32.195312 38.25c-30.332032-25.53125-56.214844-25.53125-86.554688 0zm253.625-67.875c25.359375.136719 50.777344 9.878906 75.53125 28.941406l-30.507812 39.613282c-31.796875-24.488282-59.234375-24.613282-88.960938-.421876l-31.570312-38.773437c23.941406-19.484375 49.148437-29.363281 74.949218-29.363281.1875.003906.371094.003906.558594.003906zm0 0"/></svg>