<svg height="682pt" viewBox="-100 -21 682 682.66669" width="682pt" xmlns="http://www.w3.org/2000/svg"><path d="m235.910156 150.449219c41.476563 0 75.222656-33.746094 75.222656-75.222657 0-41.480468-33.746093-75.226562-75.222656-75.226562-41.480468 0-75.226562 33.746094-75.226562 75.226562 0 41.476563 33.746094 75.222657 75.226562 75.222657zm0-100.296875c13.820313 0 25.070313 11.246094 25.070313 25.074218 0 13.820313-11.25 25.070313-25.070313 25.070313-13.828125 0-25.074218-11.25-25.074218-25.070313 0-13.828124 11.246093-25.074218 25.074218-25.074218zm75.222656 169.582031 165.601563-164.324219-35.324219-35.597656-155.652344 154.453125h-99.699218l-155.652344-154.453125-35.324219 35.597656 165.601563 164.324219v276.742187h-126.625v50.148438h176.777344v-130.390625h56.621093l38.027344 97.507813-94.394531 89.953124 34.59375 36.304688 118.742187-113.148438-53.292969-136.640624zm-50.152343 146.355469h-50.144531v-141.671875h50.144531zm0 0"/></svg>