<svg xmlns="http://www.w3.org/2000/svg" xmlns:xlink="http://www.w3.org/1999/xlink" version="1.1" x="0px" y="0px" viewBox="0 0 24 30" enable-background="new 0 0 24 24" xml:space="preserve"><g><path d="M14,14v-3V8H8v2H3c-1.654,0-3,1.346-3,3v4c0,1.654,1.346,3,3,3h9v2l6-3l-6-3v2H3c-0.551,0-1-0.448-1-1v-4   c0-0.551,0.449-1,1-1h5v2H14z M10,10h2v2h-2V10z"/><path d="M24,22v-6h-6v3v3H24z M20,18h2v2h-2V18z"/><path d="M20,12h1c1.654,0,3-1.346,3-3V5c0-1.654-1.346-3-3-3H6V0H0v6h6V4h15c0.552,0,1,0.449,1,1v4c0,0.551-0.448,1-1,1h-1V8l-6,3   l6,3V12z M4,4H2V2h2V4z"/></g><text x="0" y="39" fill="#000000" font-size="5px" font-weight="bold" font-family="'Helvetica Neue', Helvetica, Arial-Unicode, Arial, Sans-serif">Created by Rflor</text><text x="0" y="44" fill="#000000" font-size="5px" font-weight="bold" font-family="'Helvetica Neue', Helvetica, Arial-Unicode, Arial, Sans-serif">from the Noun Project</text></svg>