<svg id="Layer_1" enable-background="new 0 0 510 510" height="512" viewBox="0 0 510 510" width="512" xmlns="http://www.w3.org/2000/svg"><path d="m0 0v510h510v-510zm480 240h-66.213l-31.287 31.287-31.287-31.287h-81.213v-68.787l43.713-43.713-43.713-43.713v-53.787h210zm-240-210v66.213l31.287 31.287-31.287 31.287v81.213h-53.787l-51.213-51.213-51.213 51.213h-53.787v-210zm-210 240h66.213l38.787-38.787 38.787 38.787h66.213v53.787l-51.213 51.213 51.213 51.213v53.787h-210zm240 210v-66.213l-38.787-38.787 38.787-38.787v-66.213h68.787l43.713 43.713 43.713-43.713h53.787v210z"/></svg>