<?xml version="1.0" encoding="iso-8859-1"?>
<!-- Generator: Adobe Illustrator 19.0.0, SVG Export Plug-In . SVG Version: 6.00 Build 0)  -->
<svg version="1.1" id="Capa_1" xmlns="http://www.w3.org/2000/svg" xmlns:xlink="http://www.w3.org/1999/xlink" x="0px" y="0px"
	 viewBox="0 0 512 512" style="enable-background:new 0 0 512 512;" xml:space="preserve">
<g>
	<g>
		<path d="M471,422V205.6c-9.382,4.803-19.433,8.663-30,11.426V422H71V192h220.631c3.107-2.917,6.139-5.927,9.084-9.026
			c-6.784-6.394-12.816-13.431-17.98-20.974H41v260H0v45c0,24.813,20.187,45,45,45h422c24.813,0,45-20.187,45-45v-45H471z M482,467
			c0,8.271-6.729,15-15,15H45c-8.271,0-15-6.729-15-15v-15h452V467z"/>
	</g>
</g>
<g>
	<g>
		<path d="M402,0c-60.654,0-110,43.065-110,96c0,34.415,20.861,64.652,52.123,81.602c-9.539,13.145-20.298,25.348-32.123,36.428
			c29.981-2.48,58.482-10.17,84.608-22.146C398.395,191.96,400.192,192,402,192c60.654,0,110-43.065,110-96S462.654,0,402,0z
			 M402,162c-44.112,0-80-29.607-80-66s35.888-66,80-66s80,29.607,80,66S446.112,162,402,162z"/>
	</g>
</g>
<g>
	<g>
		<path d="M294.553,300.183C298.642,293.407,301,285.474,301,277v-20c0-24.813-20.187-45-45-45s-45,20.187-45,45v20
			c0,8.474,2.358,16.407,6.447,23.183C184.221,314.996,161,348.335,161,387v15h190v-15C351,348.335,327.779,314.996,294.553,300.183
			z M241,257c0-8.271,6.729-15,15-15s15,6.729,15,15v20c0,8.271-6.729,15-15,15s-15-6.729-15-15V257z M192.747,372
			c6.789-28.635,32.572-50,63.253-50c30.681,0,56.464,21.365,63.253,50H192.747z"/>
	</g>
</g>
<g>
</g>
<g>
</g>
<g>
</g>
<g>
</g>
<g>
</g>
<g>
</g>
<g>
</g>
<g>
</g>
<g>
</g>
<g>
</g>
<g>
</g>
<g>
</g>
<g>
</g>
<g>
</g>
<g>
</g>
</svg>
