<svg height="512pt" viewBox="0 -31 512 512" width="512pt" xmlns="http://www.w3.org/2000/svg"><path d="m452 0h-392c-33.085938 0-60 26.914062-60 60v250.878906c0 33.082032 26.914062 60 60 60h176v40h-104v40h248v-40h-104v-40h176c33.085938 0 60-26.917968 60-60v-250.878906c0-33.085938-26.914062-60-60-60zm-392 40h392c11.027344 0 20 8.972656 20 20v191h-39.746094c-2.960937-32.546875-21.785156-60.578125-48.664062-76.269531 6.5625-9.621094 10.410156-21.234375 10.410156-33.730469 0-33.085938-26.914062-60-60-60s-60 26.914062-60 60c0 12.496094 3.84375 24.109375 10.410156 33.730469-11.3125 6.605469-21.199218 15.394531-29.078125 25.785156-8.15625-10.757813-18.464843-19.800781-30.28125-26.476563 6.28125-9.484374 9.949219-20.839843 9.949219-33.039062 0-33.085938-26.914062-60-60-60s-60 26.914062-60 60c0 12.800781 4.042969 24.671875 10.902344 34.425781-26.25 15.8125-44.574219 43.503907-47.488282 75.574219h-38.414062v-191c0-11.027344 8.972656-20 20-20zm115 121c-11.027344 0-20-8.972656-20-20s8.972656-20 20-20 20 8.972656 20 20-8.972656 20-20 20zm1.667969 40.332031c29.289062 0 53.628906 21.578125 57.972656 49.667969h-115.949219c4.34375-28.089844 28.6875-49.667969 57.976563-49.667969zm139.332031 89.667969v39.878906h-120v-39.878906zm-39.976562-40c4.34375-28.089844 28.6875-49.667969 57.976562-49.667969s53.632812 21.578125 57.976562 49.667969zm57.976562-90c-11.027344 0-20-8.972656-20-20s8.972656-20 20-20 20 8.972656 20 20-8.972656 20-20 20zm-294 149.878906v-19.878906h116v39.878906h-96c-11.027344 0-20-8.972656-20-20zm412 20h-96v-39.878906h116v19.878906c0 11.027344-8.972656 20-20 20zm0 0"/></svg>